<?xml version="1.0" encoding="utf-8"?>
<!-- Generator: Adobe Illustrator 27.4.0, SVG Export Plug-In . SVG Version: 6.00 Build 0)  -->
<svg version="1.1" id="Layer_1" xmlns="http://www.w3.org/2000/svg" xmlns:xlink="http://www.w3.org/1999/xlink" x="0px" y="0px"
	 viewBox="0 0 1720 500" style="enable-background:new 0 0 1720 500;" xml:space="preserve">
<style type="text/css">
	.st0{fill:#666666;stroke:#F9F9F9;}
	.st1{fill:#0F8554;stroke:#F9F9F9;}
	.st2{fill:#EDAD08;stroke:#F9F9F9;}
	.st3{fill:#E17C05;stroke:#F9F9F9;}
	.st4{fill:#38A6A5;stroke:#F9F9F9;}
	.st5{fill:#5F4690;stroke:#F9F9F9;}
	.st6{fill:#6F4070;stroke:#F9F9F9;}
	.st7{fill:#73AF48;stroke:#F9F9F9;}
	.st8{fill:#CC503E;stroke:#F9F9F9;}
	.st9{fill:#94346E;stroke:#F9F9F9;}
	.st10{fill:#1D6996;stroke:#F9F9F9;}
	.st11{display:none;}
	.st12{display:inline;}
	.st13{fill:#ADC7FF;}
	.st14{font-family:'ArialMT';}
	.st15{font-size:12.8px;}
</style>
<g transform="translate(20, 20)">
	<g>
		<path class="st0" d="M0,248.6c35.7,0,35.7-8.8,71.5-8.8c35.7,0,35.7-16.9,71.5-16.9c35.7,0,35.7,27.1,71.5,27.1S250.2,220,286,220
			c35.7,0,35.7,0,71.5,0c35.7,0,35.7,32.3,71.5,32.3s35.7-2.2,71.5-2.2c35.7,0,35.7,8.1,71.5,8.1s35.7,0.7,71.5,0.7
			c35.7,0,35.7,22.7,71.5,22.7c35.7,0,35.7,1.5,71.5,1.5s35.7-0.7,71.5-0.7c35.7,0,35.7,0,71.5,0c35.7,0,35.7,1.5,71.5,1.5
			c35.7,0,35.7,4.4,71.5,4.4c35.7,0,35.7,16.9,71.5,16.9c35.7,0,35.7,6.6,71.5,6.6c17.9,0,17.9-38.1,35.7-38.1
			c35.7,0,35.7,20.5,71.5,20.5c35.7,0,35.7-2.2,71.5-2.2c35.7,0,35.7-8.8,71.5-8.8s35.7-13.2,71.5-13.2c35.7,0,35.7,30.8,71.5,30.8
			c35.7,0,35.7,11,71.5,11v-4.4c-35.7,0-35.7-11-71.5-11c-35.7,0-35.7-30.8-71.5-30.8c-35.7,0-35.7,14.7-71.5,14.7
			s-35.7,8.8-71.5,8.8c-35.7,0-35.7,3.7-71.5,3.7c-35.7,0-35.7-20.5-71.5-20.5c-17.9,0-17.9,39.6-35.7,39.6
			c-35.7,0-35.7-6.6-71.5-6.6c-35.7,0-35.7-16.9-71.5-16.9c-35.7,0-35.7-4.4-71.5-4.4c-35.7,0-35.7-1.5-71.5-1.5
			c-35.7,0-35.7,0-71.5,0c-35.7,0-35.7,0.7-71.5,0.7s-35.7-1.5-71.5-1.5c-35.7,0-35.7-22.7-71.5-22.7c-35.7,0-35.7-0.7-71.5-0.7
			s-35.7-8.1-71.5-8.1c-35.7,0-35.7,2.2-71.5,2.2S393.2,220,357.4,220c-35.7,0-35.7,0-71.5,0c-35.7,0-35.7,30.1-71.5,30.1
			s-35.7-27.1-71.5-27.1c-35.7,0-35.7,16.9-71.5,16.9C35.7,239.8,35.7,248.6,0,248.6z"/>
		<path class="st1" d="M0,248.6c35.7,0,35.7-8.8,71.5-8.8c35.7,0,35.7-16.9,71.5-16.9c35.7,0,35.7,27.1,71.5,27.1S250.2,220,286,220
			c35.7,0,35.7,0,71.5,0c35.7,0,35.7,32.3,71.5,32.3s35.7-2.2,71.5-2.2c35.7,0,35.7,8.1,71.5,8.1s35.7,0.7,71.5,0.7
			c35.7,0,35.7,22.7,71.5,22.7c35.7,0,35.7,1.5,71.5,1.5s35.7-0.7,71.5-0.7c35.7,0,35.7,0,71.5,0c35.7,0,35.7,1.5,71.5,1.5
			c35.7,0,35.7,4.4,71.5,4.4c35.7,0,35.7,16.9,71.5,16.9c35.7,0,35.7,6.6,71.5,6.6c17.9,0,17.9-39.6,35.7-39.6
			c35.7,0,35.7,20.5,71.5,20.5c35.7,0,35.7-3.7,71.5-3.7c35.7,0,35.7-8.8,71.5-8.8s35.7-14.7,71.5-14.7c35.7,0,35.7,30.8,71.5,30.8
			c35.7,0,35.7,11,71.5,11v-20.5c-35.7,0-35.7-15.4-71.5-15.4c-35.7,0-35.7-29.3-71.5-29.3c-35.7,0-35.7,4.4-71.5,4.4
			S1429.8,264,1394,264c-35.7,0-35.7,3.7-71.5,3.7c-35.7,0-35.7-8.8-71.5-8.8c-17.9,0-17.9,22-35.7,22c-35.7,0-35.7,9.5-71.5,9.5
			c-35.7,0-35.7-3.7-71.5-3.7c-35.7,0-35.7-13.2-71.5-13.2c-35.7,0-35.7,0-71.5,0c-35.7,0-35.7,1.5-71.5,1.5
			c-35.7,0-35.7-8.1-71.5-8.1s-35.7-2.9-71.5-2.9c-35.7,0-35.7-13.9-71.5-13.9c-35.7,0-35.7-8.1-71.5-8.1s-35.7-3.7-71.5-3.7
			c-35.7,0-35.7,2.2-71.5,2.2S393.2,220,357.4,220c-35.7,0-35.7,0-71.5,0c-35.7,0-35.7,24.2-71.5,24.2S178.7,220,143,220
			c-35.7,0-35.7,13.9-71.5,13.9c-35.7,0-35.7,10.3-71.5,10.3V248.6z"/>
		<path class="st0" d="M0,222.2c35.7,0,35.7,0,71.5,0c35.7,0,35.7-12.5,71.5-12.5c35.7,0,35.7,11,71.5,11s35.7-0.7,71.5-0.7
			c35.7,0,35.7,0,71.5,0c35.7,0,35.7-10.3,71.5-10.3s35.7-2.2,71.5-2.2c35.7,0,35.7-18.3,71.5-18.3s35.7-2.2,71.5-2.2
			c35.7,0,35.7,3.7,71.5,3.7c35.7,0,35.7,10.3,71.5,10.3s35.7-12.5,71.5-12.5c35.7,0,35.7-24.9,71.5-24.9c35.7,0,35.7,2.9,71.5,2.9
			c35.7,0,35.7,0,71.5,0c35.7,0,35.7-16.9,71.5-16.9c35.7,0,35.7,11,71.5,11c17.9,0,17.9-1.5,35.7-1.5c35.7,0,35.7,2.9,71.5,2.9
			c35.7,0,35.7-25.7,71.5-25.7c35.7,0,35.7-14.7,71.5-14.7s35.7,16.1,71.5,16.1c35.7,0,35.7,42.5,71.5,42.5
			c35.7,0,35.7-8.1,71.5-8.1v-4.4c-35.7,0-35.7,3.7-71.5,3.7c-35.7,0-35.7-38.1-71.5-38.1c-35.7,0-35.7-13.2-71.5-13.2
			s-35.7,14.7-71.5,14.7c-35.7,0-35.7,24.2-71.5,24.2c-35.7,0-35.7-2.9-71.5-2.9c-17.9,0-17.9,4.4-35.7,4.4c-35.7,0-35.7-11-71.5-11
			c-35.7,0-35.7,16.9-71.5,16.9c-35.7,0-35.7,0-71.5,0c-35.7,0-35.7-2.9-71.5-2.9c-35.7,0-35.7,24.9-71.5,24.9
			c-35.7,0-35.7,12.5-71.5,12.5s-35.7-10.3-71.5-10.3c-35.7,0-35.7-3.7-71.5-3.7c-35.7,0-35.7,2.2-71.5,2.2s-35.7,18.3-71.5,18.3
			c-35.7,0-35.7,2.2-71.5,2.2S393.2,220,357.4,220c-35.7,0-35.7,0-71.5,0c-35.7,0-35.7,0.7-71.5,0.7s-35.7-11-71.5-11
			c-35.7,0-35.7,12.5-71.5,12.5C35.7,222.2,35.7,222.2,0,222.2z"/>
		<path class="st0" d="M0,223.7c35.7,0,35.7,2.9,71.5,2.9c35.7,0,35.7-12.5,71.5-12.5c35.7,0,35.7,16.9,71.5,16.9s35.7-11,71.5-11
			c35.7,0,35.7,0,71.5,0c35.7,0,35.7-4.4,71.5-4.4s35.7,3.7,71.5,3.7c35.7,0,35.7-0.7,71.5-0.7s35.7,15.4,71.5,15.4
			c35.7,0,35.7,8.1,71.5,8.1c35.7,0,35.7-8.8,71.5-8.8s35.7,5.1,71.5,5.1c35.7,0,35.7-2.9,71.5-2.9c35.7,0,35.7,7.3,71.5,7.3
			c35.7,0,35.7,8.8,71.5,8.8c35.7,0,35.7-12.5,71.5-12.5c35.7,0,35.7,2.2,71.5,2.2c17.9,0,17.9-33.7,35.7-33.7
			c35.7,0,35.7,17.6,71.5,17.6c35.7,0,35.7-6.6,71.5-6.6c35.7,0,35.7-22,71.5-22s35.7,17.6,71.5,17.6c35.7,0,35.7,22,71.5,22
			c35.7,0,35.7,5.1,71.5,5.1v-1.5c-35.7,0-35.7-3.7-71.5-3.7c-35.7,0-35.7-22-71.5-22c-35.7,0-35.7-17.6-71.5-17.6s-35.7,22-71.5,22
			c-35.7,0-35.7,5.1-71.5,5.1c-35.7,0-35.7-16.1-71.5-16.1c-17.9,0-17.9,33.7-35.7,33.7c-35.7,0-35.7-2.2-71.5-2.2
			c-35.7,0-35.7,12.5-71.5,12.5c-35.7,0-35.7-8.8-71.5-8.8c-35.7,0-35.7-7.3-71.5-7.3c-35.7,0-35.7,2.9-71.5,2.9
			c-35.7,0-35.7-5.1-71.5-5.1s-35.7,8.8-71.5,8.8c-35.7,0-35.7-8.1-71.5-8.1c-35.7,0-35.7-15.4-71.5-15.4s-35.7,0.7-71.5,0.7
			c-35.7,0-35.7-6.6-71.5-6.6s-35.7,7.3-71.5,7.3c-35.7,0-35.7,0-71.5,0c-35.7,0-35.7,11-71.5,11s-35.7-16.9-71.5-16.9
			c-35.7,0-35.7,11-71.5,11c-35.7,0-35.7-2.9-71.5-2.9V223.7z"/>
		<path class="st0" d="M0,222.2c35.7,0,35.7,1.5,71.5,1.5c35.7,0,35.7-11,71.5-11c35.7,0,35.7,16.9,71.5,16.9s35.7-9.5,71.5-9.5
			c35.7,0,35.7,0,71.5,0c35.7,0,35.7-10.3,71.5-10.3s35.7,8.1,71.5,8.1c35.7,0,35.7-27.1,71.5-27.1s35.7-0.7,71.5-0.7
			c35.7,0,35.7,0.7,71.5,0.7c35.7,0,35.7,10.3,71.5,10.3s35.7-11,71.5-11c35.7,0,35.7-26.4,71.5-26.4c35.7,0,35.7,4.4,71.5,4.4
			c35.7,0,35.7-1.5,71.5-1.5c35.7,0,35.7-16.9,71.5-16.9c35.7,0,35.7,53.5,71.5,53.5c17.9,0,17.9-4.4,35.7-4.4
			c35.7,0,35.7,19.1,71.5,19.1c35.7,0,35.7,0.7,71.5,0.7c35.7,0,35.7-24.9,71.5-24.9s35.7,19.1,71.5,19.1
			c35.7,0,35.7,19.1,71.5,19.1c35.7,0,35.7,2.2,71.5,2.2l0,0c-35.7,0-35.7-2.2-71.5-2.2c-35.7,0-35.7-19.1-71.5-19.1
			c-35.7,0-35.7-20.5-71.5-20.5s-35.7,22-71.5,22c-35.7,0-35.7,2.2-71.5,2.2c-35.7,0-35.7-17.6-71.5-17.6c-17.9,0-17.9,4.4-35.7,4.4
			c-35.7,0-35.7-53.5-71.5-53.5c-35.7,0-35.7,16.9-71.5,16.9c-35.7,0-35.7,0-71.5,0c-35.7,0-35.7-2.9-71.5-2.9
			c-35.7,0-35.7,26.4-71.5,26.4c-35.7,0-35.7,11-71.5,11s-35.7-10.3-71.5-10.3c-35.7,0-35.7-0.7-71.5-0.7c-35.7,0-35.7,0.7-71.5,0.7
			s-35.7,27.1-71.5,27.1c-35.7,0-35.7-8.1-71.5-8.1S393.2,220,357.4,220c-35.7,0-35.7,0-71.5,0c-35.7,0-35.7,9.5-71.5,9.5
			s-35.7-16.9-71.5-16.9c-35.7,0-35.7,11-71.5,11C35.7,223.7,35.7,222.2,0,222.2z"/>
		<path class="st2" d="M0,255.9c35.7,0,35.7-5.9,71.5-5.9c35.7,0,35.7,0.7,71.5,0.7c35.7,0,35.7,6.6,71.5,6.6S250.2,220,286,220
			c35.7,0,35.7,0,71.5,0c35.7,0,35.7,49.9,71.5,49.9s35.7-0.7,71.5-0.7c35.7,0,35.7,3.7,71.5,3.7s35.7,6.6,71.5,6.6
			c35.7,0,35.7,16.9,71.5,16.9c35.7,0,35.7,1.5,71.5,1.5s35.7-2.2,71.5-2.2c35.7,0,35.7,5.9,71.5,5.9c35.7,0,35.7,2.9,71.5,2.9
			c35.7,0,35.7,1.5,71.5,1.5c35.7,0,35.7,15.4,71.5,15.4c35.7,0,35.7,16.9,71.5,16.9c17.9,0,17.9,7.3,35.7,7.3
			c35.7,0,35.7,16.1,71.5,16.1c35.7,0,35.7,24.2,71.5,24.2c35.7,0,35.7,2.9,71.5,2.9s35.7,0,71.5,0c35.7,0,35.7,35.2,71.5,35.2
			c35.7,0,35.7-31.5,71.5-31.5v-42.5c-35.7,0-35.7,37.4-71.5,37.4c-35.7,0-35.7-36.7-71.5-36.7c-35.7,0-35.7,2.9-71.5,2.9
			s-35.7,7.3-71.5,7.3c-35.7,0-35.7-21.3-71.5-21.3c-35.7,0-35.7-13.2-71.5-13.2c-17.9,0-17.9,1.5-35.7,1.5
			c-35.7,0-35.7-13.9-71.5-13.9c-35.7,0-35.7-13.9-71.5-13.9c-35.7,0-35.7,1.5-71.5,1.5c-35.7,0-35.7-4.4-71.5-4.4
			c-35.7,0-35.7-2.9-71.5-2.9c-35.7,0-35.7-0.7-71.5-0.7s-35.7-1.5-71.5-1.5c-35.7,0-35.7-18.3-71.5-18.3c-35.7,0-35.7-5.1-71.5-5.1
			s-35.7-2.2-71.5-2.2c-35.7,0-35.7-0.7-71.5-0.7S393.2,220,357.4,220c-35.7,0-35.7,0-71.5,0c-35.7,0-35.7,35.9-71.5,35.9
			s-35.7-15.4-71.5-15.4c-35.7,0-35.7,8.1-71.5,8.1c-35.7,0-35.7,5.9-71.5,5.9V255.9z"/>
		<path class="st0" d="M0,222.2c35.7,0,35.7,0,71.5,0c35.7,0,35.7-12.5,71.5-12.5c35.7,0,35.7,11,71.5,11s35.7-0.7,71.5-0.7
			c35.7,0,35.7,0,71.5,0c35.7,0,35.7-10.3,71.5-10.3s35.7-2.2,71.5-2.2c35.7,0,35.7-16.9,71.5-16.9s35.7-0.7,71.5-0.7
			c35.7,0,35.7,0.7,71.5,0.7c35.7,0,35.7,10.3,71.5,10.3s35.7-11,71.5-11c35.7,0,35.7-26.4,71.5-26.4c35.7,0,35.7,2.9,71.5,2.9
			c35.7,0,35.7,0,71.5,0c35.7,0,35.7-16.9,71.5-16.9c35.7,0,35.7,15.4,71.5,15.4c17.9,0,17.9-1.5,35.7-1.5
			c35.7,0,35.7,10.3,71.5,10.3c35.7,0,35.7-22.7,71.5-22.7c35.7,0,35.7-10.3,71.5-10.3s35.7,22,71.5,22c35.7,0,35.7,39.6,71.5,39.6
			c35.7,0,35.7-13.9,71.5-13.9v-13.2c-35.7,0-35.7,13.9-71.5,13.9c-35.7,0-35.7-42.5-71.5-42.5c-35.7,0-35.7-22-71.5-22
			s-35.7,14.7-71.5,14.7c-35.7,0-35.7,22.7-71.5,22.7c-35.7,0-35.7-2.9-71.5-2.9c-17.9,0-17.9,1.5-35.7,1.5c-35.7,0-35.7-11-71.5-11
			c-35.7,0-35.7,16.9-71.5,16.9c-35.7,0-35.7,0-71.5,0c-35.7,0-35.7-2.9-71.5-2.9c-35.7,0-35.7,26.4-71.5,26.4
			c-35.7,0-35.7,11-71.5,11s-35.7-10.3-71.5-10.3c-35.7,0-35.7-0.7-71.5-0.7c-35.7,0-35.7,0.7-71.5,0.7s-35.7,16.9-71.5,16.9
			c-35.7,0-35.7,2.2-71.5,2.2S393.2,220,357.4,220c-35.7,0-35.7,0-71.5,0c-35.7,0-35.7,0.7-71.5,0.7s-35.7-11-71.5-11
			c-35.7,0-35.7,12.5-71.5,12.5C35.7,222.2,35.7,222.2,0,222.2z"/>
		<path class="st0" d="M0,222.2c35.7,0,35.7,1.5,71.5,1.5c35.7,0,35.7-11,71.5-11c35.7,0,35.7,16.9,71.5,16.9s35.7-9.5,71.5-9.5
			c35.7,0,35.7,0,71.5,0c35.7,0,35.7-10.3,71.5-10.3s35.7,8.1,71.5,8.1c35.7,0,35.7-27.1,71.5-27.1s35.7-0.7,71.5-0.7
			c35.7,0,35.7,0.7,71.5,0.7c35.7,0,35.7,10.3,71.5,10.3s35.7-11,71.5-11c35.7,0,35.7-26.4,71.5-26.4c35.7,0,35.7,2.9,71.5,2.9
			c35.7,0,35.7,0,71.5,0c35.7,0,35.7-16.9,71.5-16.9c35.7,0,35.7,53.5,71.5,53.5c17.9,0,17.9-4.4,35.7-4.4
			c35.7,0,35.7,17.6,71.5,17.6c35.7,0,35.7-2.2,71.5-2.2c35.7,0,35.7-22,71.5-22s35.7,20.5,71.5,20.5c35.7,0,35.7,19.1,71.5,19.1
			c35.7,0,35.7,2.2,71.5,2.2l0,0c-35.7,0-35.7-3.7-71.5-3.7c-35.7,0-35.7-22-71.5-22c-35.7,0-35.7-20.5-71.5-20.5
			s-35.7,20.5-71.5,20.5c-35.7,0-35.7,8.1-71.5,8.1c-35.7,0-35.7-17.6-71.5-17.6c-17.9,0-17.9,4.4-35.7,4.4
			c-35.7,0-35.7-53.5-71.5-53.5c-35.7,0-35.7,16.9-71.5,16.9c-35.7,0-35.7,0-71.5,0c-35.7,0-35.7-2.9-71.5-2.9
			c-35.7,0-35.7,26.4-71.5,26.4c-35.7,0-35.7,11-71.5,11s-35.7-10.3-71.5-10.3c-35.7,0-35.7-0.7-71.5-0.7c-35.7,0-35.7,0.7-71.5,0.7
			s-35.7,27.1-71.5,27.1c-35.7,0-35.7-8.1-71.5-8.1S393.2,220,357.4,220c-35.7,0-35.7,0-71.5,0c-35.7,0-35.7,9.5-71.5,9.5
			s-35.7-16.9-71.5-16.9c-35.7,0-35.7,11-71.5,11C35.7,223.7,35.7,222.2,0,222.2z"/>
		<path class="st0" d="M0,222.2c35.7,0,35.7,0,71.5,0c35.7,0,35.7-12.5,71.5-12.5c35.7,0,35.7,11,71.5,11s35.7-0.7,71.5-0.7
			c35.7,0,35.7,0,71.5,0c35.7,0,35.7-10.3,71.5-10.3s35.7-2.2,71.5-2.2c35.7,0,35.7-18.3,71.5-18.3s35.7-2.2,71.5-2.2
			c35.7,0,35.7,3.7,71.5,3.7c35.7,0,35.7,10.3,71.5,10.3s35.7-12.5,71.5-12.5c35.7,0,35.7-24.9,71.5-24.9c35.7,0,35.7,2.9,71.5,2.9
			c35.7,0,35.7,0,71.5,0c35.7,0,35.7-16.9,71.5-16.9c35.7,0,35.7,11,71.5,11c17.9,0,17.9-4.4,35.7-4.4c35.7,0,35.7,2.9,71.5,2.9
			c35.7,0,35.7-24.2,71.5-24.2c35.7,0,35.7-14.7,71.5-14.7s35.7,13.2,71.5,13.2c35.7,0,35.7,38.1,71.5,38.1
			c35.7,0,35.7-3.7,71.5-3.7v-10.3c-35.7,0-35.7,2.2-71.5,2.2c-35.7,0-35.7-35.2-71.5-35.2c-35.7,0-35.7-10.3-71.5-10.3
			s-35.7,16.1-71.5,16.1c-35.7,0-35.7,24.2-71.5,24.2c-35.7,0-35.7,1.5-71.5,1.5c-17.9,0-17.9,4.4-35.7,4.4c-35.7,0-35.7-11-71.5-11
			c-35.7,0-35.7,16.9-71.5,16.9c-35.7,0-35.7,0-71.5,0c-35.7,0-35.7-2.9-71.5-2.9c-35.7,0-35.7,24.9-71.5,24.9
			c-35.7,0-35.7,12.5-71.5,12.5s-35.7-10.3-71.5-10.3c-35.7,0-35.7-3.7-71.5-3.7c-35.7,0-35.7,2.2-71.5,2.2s-35.7,18.3-71.5,18.3
			c-35.7,0-35.7,2.2-71.5,2.2S393.2,220,357.4,220c-35.7,0-35.7,0-71.5,0c-35.7,0-35.7,0.7-71.5,0.7s-35.7-11-71.5-11
			c-35.7,0-35.7,12.5-71.5,12.5C35.7,222.2,35.7,222.2,0,222.2z"/>
		<path class="st0" d="M0,222.2c35.7,0,35.7,2.9,71.5,2.9c35.7,0,35.7-12.5,71.5-12.5c35.7,0,35.7,16.9,71.5,16.9s35.7-9.5,71.5-9.5
			c35.7,0,35.7,0,71.5,0c35.7,0,35.7-8.8,71.5-8.8s35.7,6.6,71.5,6.6c35.7,0,35.7-3.7,71.5-3.7s35.7,8.1,71.5,8.1
			c35.7,0,35.7,6.6,71.5,6.6c35.7,0,35.7,4.4,71.5,4.4s35.7,5.1,71.5,5.1c35.7,0,35.7-5.9,71.5-5.9c35.7,0,35.7,2.9,71.5,2.9
			c35.7,0,35.7,13.2,71.5,13.2c35.7,0,35.7-11,71.5-11c35.7,0,35.7,3.7,71.5,3.7c17.9,0,17.9-33.7,35.7-33.7
			c35.7,0,35.7,16.1,71.5,16.1c35.7,0,35.7-5.1,71.5-5.1c35.7,0,35.7-22,71.5-22s35.7,17.6,71.5,17.6c35.7,0,35.7,22,71.5,22
			c35.7,0,35.7,0.7,71.5,0.7l0,0c-35.7,0-35.7-0.7-71.5-0.7c-35.7,0-35.7-22-71.5-22c-35.7,0-35.7-17.6-71.5-17.6s-35.7,22-71.5,22
			c-35.7,0-35.7,5.1-71.5,5.1c-35.7,0-35.7-16.1-71.5-16.1c-17.9,0-17.9,29.3-35.7,29.3c-35.7,0-35.7-3.7-71.5-3.7
			c-35.7,0-35.7,6.6-71.5,6.6c-35.7,0-35.7-5.9-71.5-5.9c-35.7,0-35.7-2.9-71.5-2.9c-35.7,0-35.7,2.9-71.5,2.9
			c-35.7,0-35.7-6.6-71.5-6.6s-35.7,0-71.5,0c-35.7,0-35.7-6.6-71.5-6.6c-35.7,0-35.7-6.6-71.5-6.6s-35.7,3.7-71.5,3.7
			c-35.7,0-35.7-8.1-71.5-8.1S393.2,220,357.4,220c-35.7,0-35.7,0-71.5,0c-35.7,0-35.7,9.5-71.5,9.5s-35.7-16.9-71.5-16.9
			c-35.7,0-35.7,11-71.5,11C35.7,223.7,35.7,222.2,0,222.2z"/>
		<path class="st0" d="M0,222.2c35.7,0,35.7,1.5,71.5,1.5c35.7,0,35.7-11,71.5-11c35.7,0,35.7,16.9,71.5,16.9s35.7-9.5,71.5-9.5
			c35.7,0,35.7,0,71.5,0c35.7,0,35.7-10.3,71.5-10.3s35.7,8.1,71.5,8.1c35.7,0,35.7-27.1,71.5-27.1s35.7-0.7,71.5-0.7
			c35.7,0,35.7,0.7,71.5,0.7c35.7,0,35.7,10.3,71.5,10.3s35.7-11,71.5-11c35.7,0,35.7-26.4,71.5-26.4c35.7,0,35.7,4.4,71.5,4.4
			c35.7,0,35.7-1.5,71.5-1.5c35.7,0,35.7-16.9,71.5-16.9c35.7,0,35.7,53.5,71.5,53.5c17.9,0,17.9-4.4,35.7-4.4
			c35.7,0,35.7,20.5,71.5,20.5c35.7,0,35.7-0.7,71.5-0.7c35.7,0,35.7-24.9,71.5-24.9s35.7,19.1,71.5,19.1
			c35.7,0,35.7,19.1,71.5,19.1c35.7,0,35.7,2.2,71.5,2.2l0,0c-35.7,0-35.7-2.2-71.5-2.2c-35.7,0-35.7-19.1-71.5-19.1
			c-35.7,0-35.7-19.1-71.5-19.1s-35.7,24.9-71.5,24.9c-35.7,0-35.7-0.7-71.5-0.7c-35.7,0-35.7-19.1-71.5-19.1
			c-17.9,0-17.9,4.4-35.7,4.4c-35.7,0-35.7-53.5-71.5-53.5c-35.7,0-35.7,16.9-71.5,16.9c-35.7,0-35.7,1.5-71.5,1.5
			c-35.7,0-35.7-4.4-71.5-4.4c-35.7,0-35.7,26.4-71.5,26.4c-35.7,0-35.7,11-71.5,11s-35.7-10.3-71.5-10.3c-35.7,0-35.7-0.7-71.5-0.7
			c-35.7,0-35.7,0.7-71.5,0.7s-35.7,27.1-71.5,27.1c-35.7,0-35.7-8.1-71.5-8.1S393.2,220,357.4,220c-35.7,0-35.7,0-71.5,0
			c-35.7,0-35.7,9.5-71.5,9.5s-35.7-16.9-71.5-16.9c-35.7,0-35.7,11-71.5,11C35.7,223.7,35.7,222.2,0,222.2z"/>
		<path class="st0" d="M0,222.2c35.7,0,35.7,1.5,71.5,1.5c35.7,0,35.7-11,71.5-11c35.7,0,35.7,16.9,71.5,16.9s35.7-9.5,71.5-9.5
			c35.7,0,35.7,0,71.5,0c35.7,0,35.7-10.3,71.5-10.3s35.7,8.1,71.5,8.1c35.7,0,35.7-3.7,71.5-3.7s35.7,6.6,71.5,6.6
			c35.7,0,35.7,6.6,71.5,6.6c35.7,0,35.7,0,71.5,0s35.7,6.6,71.5,6.6c35.7,0,35.7-2.9,71.5-2.9c35.7,0,35.7,2.9,71.5,2.9
			c35.7,0,35.7,5.9,71.5,5.9c35.7,0,35.7-6.6,71.5-6.6c35.7,0,35.7,3.7,71.5,3.7c17.9,0,17.9-29.3,35.7-29.3
			c35.7,0,35.7,16.1,71.5,16.1c35.7,0,35.7-5.1,71.5-5.1c35.7,0,35.7-22,71.5-22s35.7,17.6,71.5,17.6c35.7,0,35.7,22,71.5,22
			c35.7,0,35.7,0.7,71.5,0.7l0,0c-35.7,0-35.7-0.7-71.5-0.7c-35.7,0-35.7-22-71.5-22c-35.7,0-35.7-17.6-71.5-17.6s-35.7,22-71.5,22
			c-35.7,0-35.7,5.1-71.5,5.1c-35.7,0-35.7-16.1-71.5-16.1c-17.9,0-17.9,29.3-35.7,29.3c-35.7,0-35.7-40.3-71.5-40.3
			c-35.7,0-35.7,8.1-71.5,8.1c-35.7,0-35.7-4.4-71.5-4.4c-35.7,0-35.7,2.9-71.5,2.9c-35.7,0-35.7,10.3-71.5,10.3
			c-35.7,0-35.7,6.6-71.5,6.6s-35.7,7.3-71.5,7.3c-35.7,0-35.7-6.6-71.5-6.6c-35.7,0-35.7-6.6-71.5-6.6s-35.7,3.7-71.5,3.7
			c-35.7,0-35.7-8.1-71.5-8.1S393.2,220,357.4,220c-35.7,0-35.7,0-71.5,0c-35.7,0-35.7,9.5-71.5,9.5s-35.7-16.9-71.5-16.9
			c-35.7,0-35.7,11-71.5,11C35.7,223.7,35.7,222.2,0,222.2z"/>
		<path class="st0" d="M0,222.2c35.7,0,35.7,1.5,71.5,1.5c35.7,0,35.7-11,71.5-11c35.7,0,35.7,16.9,71.5,16.9s35.7-9.5,71.5-9.5
			c35.7,0,35.7,0,71.5,0c35.7,0,35.7-10.3,71.5-10.3s35.7,8.1,71.5,8.1c35.7,0,35.7-27.1,71.5-27.1s35.7-0.7,71.5-0.7
			c35.7,0,35.7,0.7,71.5,0.7c35.7,0,35.7,10.3,71.5,10.3s35.7-11,71.5-11c35.7,0,35.7-26.4,71.5-26.4c35.7,0,35.7,2.9,71.5,2.9
			c35.7,0,35.7,0,71.5,0c35.7,0,35.7-16.9,71.5-16.9c35.7,0,35.7,53.5,71.5,53.5c17.9,0,17.9-4.4,35.7-4.4
			c35.7,0,35.7,17.6,71.5,17.6c35.7,0,35.7-8.1,71.5-8.1c35.7,0,35.7-20.5,71.5-20.5s35.7,20.5,71.5,20.5c35.7,0,35.7,22,71.5,22
			c35.7,0,35.7,3.7,71.5,3.7l0,0c-35.7,0-35.7-3.7-71.5-3.7c-35.7,0-35.7-23.5-71.5-23.5c-35.7,0-35.7-23.5-71.5-23.5
			s-35.7,20.5-71.5,20.5c-35.7,0-35.7,12.5-71.5,12.5c-35.7,0-35.7-17.6-71.5-17.6c-17.9,0-17.9,4.4-35.7,4.4
			c-35.7,0-35.7-53.5-71.5-53.5c-35.7,0-35.7,16.9-71.5,16.9c-35.7,0-35.7,0-71.5,0c-35.7,0-35.7-2.9-71.5-2.9
			c-35.7,0-35.7,26.4-71.5,26.4c-35.7,0-35.7,11-71.5,11s-35.7-10.3-71.5-10.3c-35.7,0-35.7-0.7-71.5-0.7c-35.7,0-35.7,0.7-71.5,0.7
			s-35.7,27.1-71.5,27.1c-35.7,0-35.7-8.1-71.5-8.1S393.2,220,357.4,220c-35.7,0-35.7,0-71.5,0c-35.7,0-35.7,9.5-71.5,9.5
			s-35.7-16.9-71.5-16.9c-35.7,0-35.7,11-71.5,11C35.7,223.7,35.7,222.2,0,222.2z"/>
		<path class="st3" d="M0,239.8c35.7,0,35.7-7.3,71.5-7.3c35.7,0,35.7-13.9,71.5-13.9c35.7,0,35.7,21.3,71.5,21.3S250.2,220,286,220
			c35.7,0,35.7,0,71.5,0c35.7,0,35.7,4.4,71.5,4.4s35.7,8.1,71.5,8.1c35.7,0,35.7-3.7,71.5-3.7s35.7,16.9,71.5,16.9
			c35.7,0,35.7,12.5,71.5,12.5c35.7,0,35.7-5.9,71.5-5.9s35.7,0.7,71.5,0.7c35.7,0,35.7,7.3,71.5,7.3c35.7,0,35.7,2.9,71.5,2.9
			c35.7,0,35.7,13.2,71.5,13.2c35.7,0,35.7-15.4,71.5-15.4c35.7,0,35.7-8.1,71.5-8.1c17.9,0,17.9-36.7,35.7-36.7
			c35.7,0,35.7,26.4,71.5,26.4c35.7,0,35.7-13.9,71.5-13.9c35.7,0,35.7-19.1,71.5-19.1s35.7,11.7,71.5,11.7c35.7,0,35.7,22,71.5,22
			c35.7,0,35.7,6.6,71.5,6.6v-8.8c-35.7,0-35.7-5.1-71.5-5.1c-35.7,0-35.7-22-71.5-22c-35.7,0-35.7-17.6-71.5-17.6s-35.7,22-71.5,22
			c-35.7,0-35.7,6.6-71.5,6.6c-35.7,0-35.7-17.6-71.5-17.6c-17.9,0-17.9,35.2-35.7,35.2c-35.7,0-35.7,8.1-71.5,8.1
			c-35.7,0-35.7,6.6-71.5,6.6c-35.7,0-35.7-7.3-71.5-7.3c-35.7,0-35.7,0-71.5,0c-35.7,0-35.7-4.4-71.5-4.4
			c-35.7,0-35.7-0.7-71.5-0.7s-35.7-1.5-71.5-1.5c-35.7,0-35.7-9.5-71.5-9.5c-35.7,0-35.7-15.4-71.5-15.4s-35.7,0.7-71.5,0.7
			c-35.7,0-35.7-3.7-71.5-3.7s-35.7,4.4-71.5,4.4c-35.7,0-35.7,0-71.5,0c-35.7,0-35.7,11-71.5,11s-35.7-16.9-71.5-16.9
			c-35.7,0-35.7,12.5-71.5,12.5c-35.7,0-35.7-2.9-71.5-2.9V239.8z"/>
		<path class="st0" d="M0,222.2c35.7,0,35.7,0,71.5,0c35.7,0,35.7-12.5,71.5-12.5c35.7,0,35.7,11,71.5,11s35.7-0.7,71.5-0.7
			c35.7,0,35.7,0,71.5,0c35.7,0,35.7-10.3,71.5-10.3s35.7-2.2,71.5-2.2c35.7,0,35.7-18.3,71.5-18.3s35.7-2.2,71.5-2.2
			c35.7,0,35.7,3.7,71.5,3.7c35.7,0,35.7,10.3,71.5,10.3s35.7-12.5,71.5-12.5c35.7,0,35.7-24.9,71.5-24.9c35.7,0,35.7,2.9,71.5,2.9
			c35.7,0,35.7,0,71.5,0c35.7,0,35.7-16.9,71.5-16.9c35.7,0,35.7,11,71.5,11c17.9,0,17.9-4.4,35.7-4.4c35.7,0,35.7-1.5,71.5-1.5
			c35.7,0,35.7-24.2,71.5-24.2c35.7,0,35.7-16.1,71.5-16.1s35.7,10.3,71.5,10.3c35.7,0,35.7,35.2,71.5,35.2
			c35.7,0,35.7-2.2,71.5-2.2v-22c-35.7,0-35.7,2.2-71.5,2.2c-35.7,0-35.7-29.3-71.5-29.3c-35.7,0-35.7-7.3-71.5-7.3
			s-35.7,13.2-71.5,13.2c-35.7,0-35.7,28.6-71.5,28.6c-35.7,0-35.7,5.9-71.5,5.9c-17.9,0-17.9-1.5-35.7-1.5
			c-35.7,0-35.7-0.7-71.5-0.7c-35.7,0-35.7,15.4-71.5,15.4c-35.7,0-35.7,2.9-71.5,2.9c-35.7,0-35.7-2.9-71.5-2.9
			c-35.7,0-35.7,22-71.5,22c-35.7,0-35.7,3.7-71.5,3.7s-35.7-7.3-71.5-7.3c-35.7,0-35.7,2.2-71.5,2.2c-35.7,0-35.7,6.6-71.5,6.6
			s-35.7,16.9-71.5,16.9c-35.7,0-35.7-3.7-71.5-3.7S393.2,220,357.4,220c-35.7,0-35.7,0-71.5,0c-35.7,0-35.7-0.7-71.5-0.7
			s-35.7-11-71.5-11c-35.7,0-35.7,12.5-71.5,12.5c-35.7,0-35.7-2.9-71.5-2.9V222.2z"/>
		<path class="st4" d="M0,222.2c35.7,0,35.7,1.5,71.5,1.5c35.7,0,35.7-11,71.5-11c35.7,0,35.7,16.9,71.5,16.9s35.7-9.5,71.5-9.5
			c35.7,0,35.7,0,71.5,0c35.7,0,35.7-10.3,71.5-10.3s35.7,8.1,71.5,8.1c35.7,0,35.7-27.1,71.5-27.1s35.7-0.7,71.5-0.7
			c35.7,0,35.7,0.7,71.5,0.7c35.7,0,35.7,10.3,71.5,10.3s35.7-11,71.5-11c35.7,0,35.7-26.4,71.5-26.4c35.7,0,35.7,2.9,71.5,2.9
			c35.7,0,35.7,0,71.5,0c35.7,0,35.7-16.9,71.5-16.9c35.7,0,35.7,53.5,71.5,53.5c17.9,0,17.9-4.4,35.7-4.4
			c35.7,0,35.7,17.6,71.5,17.6c35.7,0,35.7-12.5,71.5-12.5c35.7,0,35.7-20.5,71.5-20.5s35.7,23.5,71.5,23.5
			c35.7,0,35.7,23.5,71.5,23.5c35.7,0,35.7,3.7,71.5,3.7v-45.5c-35.7,0-35.7,13.9-71.5,13.9c-35.7,0-35.7-39.6-71.5-39.6
			c-35.7,0-35.7-22-71.5-22s-35.7,10.3-71.5,10.3c-35.7,0-35.7,22.7-71.5,22.7c-35.7,0-35.7-10.3-71.5-10.3
			c-17.9,0-17.9,1.5-35.7,1.5c-35.7,0-35.7-15.4-71.5-15.4c-35.7,0-35.7,16.9-71.5,16.9c-35.7,0-35.7,0-71.5,0
			c-35.7,0-35.7-2.9-71.5-2.9c-35.7,0-35.7,26.4-71.5,26.4c-35.7,0-35.7,11-71.5,11s-35.7-10.3-71.5-10.3c-35.7,0-35.7-0.7-71.5-0.7
			c-35.7,0-35.7,0.7-71.5,0.7s-35.7,16.9-71.5,16.9c-35.7,0-35.7,2.2-71.5,2.2S393.2,220,357.4,220c-35.7,0-35.7,0-71.5,0
			c-35.7,0-35.7,0.7-71.5,0.7s-35.7-11-71.5-11c-35.7,0-35.7,12.5-71.5,12.5C35.7,222.2,35.7,222.2,0,222.2z"/>
		<path class="st0" d="M0,217.8c35.7,0,35.7,2.9,71.5,2.9c35.7,0,35.7-12.5,71.5-12.5c35.7,0,35.7,11,71.5,11s35.7,0.7,71.5,0.7
			c35.7,0,35.7,0,71.5,0c35.7,0,35.7-17.6,71.5-17.6s35.7,3.7,71.5,3.7c35.7,0,35.7-16.9,71.5-16.9s35.7-6.6,71.5-6.6
			c35.7,0,35.7-2.2,71.5-2.2c35.7,0,35.7,7.3,71.5,7.3s35.7-3.7,71.5-3.7c35.7,0,35.7-22,71.5-22c35.7,0,35.7,2.9,71.5,2.9
			c35.7,0,35.7-2.9,71.5-2.9c35.7,0,35.7-15.4,71.5-15.4c35.7,0,35.7,0.7,71.5,0.7c17.9,0,17.9,1.5,35.7,1.5
			c35.7,0,35.7-5.9,71.5-5.9c35.7,0,35.7-28.6,71.5-28.6c35.7,0,35.7-13.2,71.5-13.2s35.7,7.3,71.5,7.3c35.7,0,35.7,29.3,71.5,29.3
			c35.7,0,35.7-2.2,71.5-2.2v-7.3c-35.7,0-35.7,2.2-71.5,2.2c-35.7,0-35.7-23.5-71.5-23.5c-35.7,0-35.7-7.3-71.5-7.3
			s-35.7,11.7-71.5,11.7c-35.7,0-35.7,30.1-71.5,30.1c-35.7,0-35.7,4.4-71.5,4.4c-17.9,0-17.9,1.5-35.7,1.5
			c-35.7,0-35.7-0.7-71.5-0.7c-35.7,0-35.7,13.9-71.5,13.9c-35.7,0-35.7,2.9-71.5,2.9c-35.7,0-35.7-2.9-71.5-2.9
			c-35.7,0-35.7,23.5-71.5,23.5c-35.7,0-35.7,3.7-71.5,3.7s-35.7-8.8-71.5-8.8c-35.7,0-35.7,3.7-71.5,3.7c-35.7,0-35.7,6.6-71.5,6.6
			s-35.7,15.4-71.5,15.4c-35.7,0-35.7-5.1-71.5-5.1S393.2,220,357.4,220c-35.7,0-35.7,0-71.5,0c-35.7,0-35.7-5.1-71.5-5.1
			s-35.7-6.6-71.5-6.6c-35.7,0-35.7,11-71.5,11c-35.7,0-35.7-7.3-71.5-7.3V217.8z"/>
		<path class="st0" d="M0,222.2c35.7,0,35.7,2.9,71.5,2.9c35.7,0,35.7-11,71.5-11c35.7,0,35.7,16.9,71.5,16.9s35.7-11,71.5-11
			c35.7,0,35.7,0,71.5,0c35.7,0,35.7-7.3,71.5-7.3s35.7,6.6,71.5,6.6c35.7,0,35.7-0.7,71.5-0.7s35.7,15.4,71.5,15.4
			c35.7,0,35.7,8.1,71.5,8.1c35.7,0,35.7-8.8,71.5-8.8s35.7,5.1,71.5,5.1c35.7,0,35.7-2.9,71.5-2.9c35.7,0,35.7,7.3,71.5,7.3
			c35.7,0,35.7,8.8,71.5,8.8c35.7,0,35.7-12.5,71.5-12.5c35.7,0,35.7,2.2,71.5,2.2c17.9,0,17.9-33.7,35.7-33.7
			c35.7,0,35.7,16.1,71.5,16.1c35.7,0,35.7-5.1,71.5-5.1c35.7,0,35.7-22,71.5-22s35.7,17.6,71.5,17.6c35.7,0,35.7,22,71.5,22
			c35.7,0,35.7,3.7,71.5,3.7v-1.5c-35.7,0-35.7-2.2-71.5-2.2c-35.7,0-35.7-22-71.5-22c-35.7,0-35.7-17.6-71.5-17.6s-35.7,22-71.5,22
			c-35.7,0-35.7,5.1-71.5,5.1c-35.7,0-35.7-16.1-71.5-16.1c-17.9,0-17.9,33.7-35.7,33.7c-35.7,0-35.7-2.2-71.5-2.2
			c-35.7,0-35.7,12.5-71.5,12.5c-35.7,0-35.7-10.3-71.5-10.3c-35.7,0-35.7-5.9-71.5-5.9c-35.7,0-35.7,2.9-71.5,2.9
			c-35.7,0-35.7-5.1-71.5-5.1s-35.7,8.8-71.5,8.8c-35.7,0-35.7-8.1-71.5-8.1c-35.7,0-35.7-16.9-71.5-16.9s-35.7,0.7-71.5,0.7
			c-35.7,0-35.7-6.6-71.5-6.6s-35.7,8.8-71.5,8.8c-35.7,0-35.7,0-71.5,0c-35.7,0-35.7,9.5-71.5,9.5s-35.7-16.9-71.5-16.9
			c-35.7,0-35.7,12.5-71.5,12.5C35.7,225.1,35.7,222.2,0,222.2z"/>
		<path class="st0" d="M0,244.2c35.7,0,35.7-10.3,71.5-10.3c35.7,0,35.7-13.9,71.5-13.9c35.7,0,35.7,24.2,71.5,24.2
			S250.2,220,286,220c35.7,0,35.7,0,71.5,0c35.7,0,35.7,20.5,71.5,20.5s35.7-2.2,71.5-2.2c35.7,0,35.7,3.7,71.5,3.7
			s35.7,8.1,71.5,8.1c35.7,0,35.7,13.9,71.5,13.9c35.7,0,35.7,2.9,71.5,2.9s35.7,8.1,71.5,8.1c35.7,0,35.7-1.5,71.5-1.5
			c35.7,0,35.7,0,71.5,0c35.7,0,35.7,13.2,71.5,13.2c35.7,0,35.7,3.7,71.5,3.7c35.7,0,35.7-9.5,71.5-9.5c17.9,0,17.9-22,35.7-22
			c35.7,0,35.7,8.8,71.5,8.8c35.7,0,35.7-3.7,71.5-3.7c35.7,0,35.7-17.6,71.5-17.6s35.7-4.4,71.5-4.4c35.7,0,35.7,29.3,71.5,29.3
			c35.7,0,35.7,15.4,71.5,15.4v-14.7c-35.7,0-35.7-12.5-71.5-12.5c-35.7,0-35.7-24.9-71.5-24.9c-35.7,0-35.7-4.4-71.5-4.4
			s-35.7,14.7-71.5,14.7c-35.7,0-35.7,8.1-71.5,8.1c-35.7,0-35.7-23.5-71.5-23.5c-17.9,0-17.9,30.8-35.7,30.8
			c-35.7,0-35.7,22.7-71.5,22.7c-35.7,0-35.7,0.7-71.5,0.7c-35.7,0-35.7-13.2-71.5-13.2c-35.7,0-35.7-2.9-71.5-2.9
			c-35.7,0-35.7,0-71.5,0c-35.7,0-35.7-6.6-71.5-6.6s-35.7-2.9-71.5-2.9c-35.7,0-35.7-9.5-71.5-9.5c-35.7,0-35.7-11-71.5-11
			s-35.7-2.2-71.5-2.2c-35.7,0-35.7,3.7-71.5,3.7S393.2,220,357.4,220c-35.7,0-35.7,0-71.5,0c-35.7,0-35.7,24.2-71.5,24.2
			S178.7,220,143,220c-35.7,0-35.7,13.9-71.5,13.9C35.7,233.9,35.7,244.2,0,244.2z"/>
		<path class="st0" d="M0,209c35.7,0,35.7,2.9,71.5,2.9c35.7,0,35.7-8.1,71.5-8.1c35.7,0,35.7,0.7,71.5,0.7S250.2,220,286,220
			c35.7,0,35.7,0,71.5,0c35.7,0,35.7-35.2,71.5-35.2s35.7,9.5,71.5,9.5c35.7,0,35.7-19.8,71.5-19.8s35.7-5.1,71.5-5.1
			c35.7,0,35.7-3.7,71.5-3.7c35.7,0,35.7-2.9,71.5-2.9s35.7,2.2,71.5,2.2c35.7,0,35.7-16.1,71.5-16.1c35.7,0,35.7,2.9,71.5,2.9
			c35.7,0,35.7-2.9,71.5-2.9c35.7,0,35.7-21.3,71.5-21.3c35.7,0,35.7,8.1,71.5,8.1c17.9,0,17.9-4.4,35.7-4.4
			c35.7,0,35.7-10.3,71.5-10.3c35.7,0,35.7-33,71.5-33c35.7,0,35.7-23.5,71.5-23.5s35.7,7.3,71.5,7.3c35.7,0,35.7-17.6,71.5-17.6
			c35.7,0,35.7,19.8,71.5,19.8V55c-35.7,0-35.7-12.5-71.5-12.5c-35.7,0-35.7,22-71.5,22c-35.7,0-35.7-1.5-71.5-1.5s-35.7,22-71.5,22
			c-35.7,0-35.7,21.3-71.5,21.3c-35.7,0-35.7,17.6-71.5,17.6c-17.9,0-17.9,1.5-35.7,1.5c-35.7,0-35.7,0.7-71.5,0.7
			c-35.7,0-35.7,21.3-71.5,21.3c-35.7,0-35.7,2.9-71.5,2.9c-35.7,0-35.7-1.5-71.5-1.5c-35.7,0-35.7,11.7-71.5,11.7
			c-35.7,0-35.7,2.2-71.5,2.2s-35.7,2.9-71.5,2.9c-35.7,0-35.7,3.7-71.5,3.7c-35.7,0-35.7,3.7-71.5,3.7s-35.7,21.3-71.5,21.3
			c-35.7,0-35.7-9.5-71.5-9.5S393.2,220,357.4,220c-35.7,0-35.7,0-71.5,0c-35.7,0-35.7-15.4-71.5-15.4s-35.7-0.7-71.5-0.7
			c-35.7,0-35.7,8.1-71.5,8.1C35.7,211.9,35.7,209,0,209z"/>
		<path class="st0" d="M0,222.2c35.7,0,35.7,1.5,71.5,1.5c35.7,0,35.7-11,71.5-11c35.7,0,35.7,16.9,71.5,16.9s35.7-9.5,71.5-9.5
			c35.7,0,35.7,0,71.5,0c35.7,0,35.7-10.3,71.5-10.3s35.7,8.1,71.5,8.1c35.7,0,35.7-27.1,71.5-27.1s35.7-0.7,71.5-0.7
			c35.7,0,35.7,0.7,71.5,0.7c35.7,0,35.7,10.3,71.5,10.3s35.7-11,71.5-11c35.7,0,35.7-26.4,71.5-26.4c35.7,0,35.7,4.4,71.5,4.4
			c35.7,0,35.7-1.5,71.5-1.5c35.7,0,35.7-16.9,71.5-16.9c35.7,0,35.7,53.5,71.5,53.5c17.9,0,17.9,4.4,35.7,4.4
			c35.7,0,35.7,16.1,71.5,16.1c35.7,0,35.7-5.1,71.5-5.1c35.7,0,35.7-22,71.5-22s35.7,17.6,71.5,17.6c35.7,0,35.7,22,71.5,22
			c35.7,0,35.7,0.7,71.5,0.7v-1.5c-35.7,0-35.7-0.7-71.5-0.7c-35.7,0-35.7-22-71.5-22c-35.7,0-35.7-16.1-71.5-16.1s-35.7,22-71.5,22
			c-35.7,0-35.7,2.2-71.5,2.2c-35.7,0-35.7-17.6-71.5-17.6c-17.9,0-17.9,0-35.7,0c-35.7,0-35.7-53.5-71.5-53.5
			c-35.7,0-35.7,16.9-71.5,16.9c-35.7,0-35.7,1.5-71.5,1.5c-35.7,0-35.7-4.4-71.5-4.4c-35.7,0-35.7,26.4-71.5,26.4
			c-35.7,0-35.7,11-71.5,11s-35.7-10.3-71.5-10.3c-35.7,0-35.7-0.7-71.5-0.7c-35.7,0-35.7,0.7-71.5,0.7s-35.7,27.1-71.5,27.1
			c-35.7,0-35.7-8.1-71.5-8.1S393.2,220,357.4,220c-35.7,0-35.7,0-71.5,0c-35.7,0-35.7,9.5-71.5,9.5s-35.7-16.9-71.5-16.9
			c-35.7,0-35.7,11-71.5,11C35.7,223.7,35.7,222.2,0,222.2z"/>
		<path class="st0" d="M0,211.9c35.7,0,35.7,7.3,71.5,7.3c35.7,0,35.7-11,71.5-11c35.7,0,35.7,6.6,71.5,6.6s35.7,5.1,71.5,5.1
			c35.7,0,35.7,0,71.5,0c35.7,0,35.7-20.5,71.5-20.5s35.7,5.1,71.5,5.1c35.7,0,35.7-15.4,71.5-15.4s35.7-6.6,71.5-6.6
			c35.7,0,35.7-3.7,71.5-3.7c35.7,0,35.7,8.8,71.5,8.8s35.7-3.7,71.5-3.7c35.7,0,35.7-23.5,71.5-23.5c35.7,0,35.7,2.9,71.5,2.9
			c35.7,0,35.7-2.9,71.5-2.9c35.7,0,35.7-13.9,71.5-13.9c35.7,0,35.7,0.7,71.5,0.7c17.9,0,17.9-1.5,35.7-1.5
			c35.7,0,35.7-4.4,71.5-4.4c35.7,0,35.7-30.1,71.5-30.1c35.7,0,35.7-11.7,71.5-11.7s35.7,7.3,71.5,7.3c35.7,0,35.7,23.5,71.5,23.5
			c35.7,0,35.7-2.2,71.5-2.2v-1.5c-35.7,0-35.7-3.7-71.5-3.7c-35.7,0-35.7-19.1-71.5-19.1c-35.7,0-35.7-5.9-71.5-5.9
			s-35.7,13.2-71.5,13.2c-35.7,0-35.7,30.1-71.5,30.1c-35.7,0-35.7,4.4-71.5,4.4c-17.9,0-17.9,1.5-35.7,1.5
			c-35.7,0-35.7-0.7-71.5-0.7c-35.7,0-35.7,13.9-71.5,13.9c-35.7,0-35.7,2.9-71.5,2.9c-35.7,0-35.7-2.9-71.5-2.9
			c-35.7,0-35.7,23.5-71.5,23.5c-35.7,0-35.7,3.7-71.5,3.7s-35.7-8.8-71.5-8.8c-35.7,0-35.7,3.7-71.5,3.7c-35.7,0-35.7,6.6-71.5,6.6
			s-35.7,15.4-71.5,15.4c-35.7,0-35.7-5.1-71.5-5.1S393.2,220,357.4,220c-35.7,0-35.7,0-71.5,0c-35.7,0-35.7-5.1-71.5-5.1
			s-35.7-6.6-71.5-6.6c-35.7,0-35.7,11-71.5,11C35.7,219.3,35.7,211.9,0,211.9z"/>
		<path class="st0" d="M0,222.2c35.7,0,35.7,2.9,71.5,2.9c35.7,0,35.7-12.5,71.5-12.5c35.7,0,35.7,16.9,71.5,16.9s35.7-9.5,71.5-9.5
			c35.7,0,35.7,0,71.5,0c35.7,0,35.7-8.8,71.5-8.8s35.7,6.6,71.5,6.6c35.7,0,35.7-3.7,71.5-3.7s35.7,8.1,71.5,8.1
			c35.7,0,35.7,6.6,71.5,6.6c35.7,0,35.7,4.4,71.5,4.4s35.7,5.1,71.5,5.1c35.7,0,35.7-2.9,71.5-2.9c35.7,0,35.7,5.9,71.5,5.9
			c35.7,0,35.7,10.3,71.5,10.3c35.7,0,35.7-12.5,71.5-12.5c35.7,0,35.7,2.2,71.5,2.2c17.9,0,17.9-33.7,35.7-33.7
			c35.7,0,35.7,16.1,71.5,16.1c35.7,0,35.7-5.1,71.5-5.1c35.7,0,35.7-22,71.5-22s35.7,17.6,71.5,17.6c35.7,0,35.7,22,71.5,22
			c35.7,0,35.7,2.2,71.5,2.2v-1.5c-35.7,0-35.7-0.7-71.5-0.7c-35.7,0-35.7-22-71.5-22c-35.7,0-35.7-17.6-71.5-17.6s-35.7,22-71.5,22
			c-35.7,0-35.7,5.1-71.5,5.1c-35.7,0-35.7-16.1-71.5-16.1c-17.9,0-17.9,33.7-35.7,33.7c-35.7,0-35.7-3.7-71.5-3.7
			c-35.7,0-35.7,11-71.5,11c-35.7,0-35.7-13.2-71.5-13.2c-35.7,0-35.7-2.9-71.5-2.9c-35.7,0-35.7,5.9-71.5,5.9
			c-35.7,0-35.7-5.1-71.5-5.1s-35.7-4.4-71.5-4.4c-35.7,0-35.7-6.6-71.5-6.6c-35.7,0-35.7-8.1-71.5-8.1s-35.7,3.7-71.5,3.7
			c-35.7,0-35.7-6.6-71.5-6.6s-35.7,8.8-71.5,8.8c-35.7,0-35.7,0-71.5,0c-35.7,0-35.7,9.5-71.5,9.5s-35.7-16.9-71.5-16.9
			c-35.7,0-35.7,12.5-71.5,12.5C35.7,225.1,35.7,222.2,0,222.2z"/>
		<path class="st0" d="M0,244.2c35.7,0,35.7-10.3,71.5-10.3c35.7,0,35.7-13.9,71.5-13.9c35.7,0,35.7,24.2,71.5,24.2
			S250.2,220,286,220c35.7,0,35.7,0,71.5,0c35.7,0,35.7,19.1,71.5,19.1s35.7-3.7,71.5-3.7c35.7,0,35.7,2.2,71.5,2.2s35.7,11,71.5,11
			c35.7,0,35.7,9.5,71.5,9.5c35.7,0,35.7,2.9,71.5,2.9s35.7,6.6,71.5,6.6c35.7,0,35.7,0,71.5,0c35.7,0,35.7,2.9,71.5,2.9
			c35.7,0,35.7,13.2,71.5,13.2c35.7,0,35.7-0.7,71.5-0.7c35.7,0,35.7-22.7,71.5-22.7c17.9,0,17.9-30.8,35.7-30.8
			c35.7,0,35.7,23.5,71.5,23.5c35.7,0,35.7-8.1,71.5-8.1c35.7,0,35.7-14.7,71.5-14.7s35.7,4.4,71.5,4.4c35.7,0,35.7,24.9,71.5,24.9
			c35.7,0,35.7,12.5,71.5,12.5l0,0c-35.7,0-35.7-12.5-71.5-12.5c-35.7,0-35.7-24.9-71.5-24.9c-35.7,0-35.7-4.4-71.5-4.4
			s-35.7,14.7-71.5,14.7c-35.7,0-35.7,8.1-71.5,8.1c-35.7,0-35.7-23.5-71.5-23.5c-17.9,0-17.9,27.9-35.7,27.9
			c-35.7,0-35.7,25.7-71.5,25.7c-35.7,0-35.7,0.7-71.5,0.7c-35.7,0-35.7-13.2-71.5-13.2c-35.7,0-35.7-2.9-71.5-2.9
			c-35.7,0-35.7,0-71.5,0c-35.7,0-35.7-6.6-71.5-6.6s-35.7-2.9-71.5-2.9c-35.7,0-35.7-9.5-71.5-9.5c-35.7,0-35.7-11-71.5-11
			s-35.7-2.2-71.5-2.2c-35.7,0-35.7,3.7-71.5,3.7S393.2,220,357.4,220c-35.7,0-35.7,0-71.5,0c-35.7,0-35.7,24.2-71.5,24.2
			S178.7,220,143,220c-35.7,0-35.7,13.9-71.5,13.9C35.7,233.9,35.7,244.2,0,244.2z"/>
		<path class="st0" d="M0,211.9c35.7,0,35.7,7.3,71.5,7.3c35.7,0,35.7-11,71.5-11c35.7,0,35.7,6.6,71.5,6.6s35.7,5.1,71.5,5.1
			c35.7,0,35.7,0,71.5,0c35.7,0,35.7-20.5,71.5-20.5s35.7,5.1,71.5,5.1c35.7,0,35.7-15.4,71.5-15.4s35.7-6.6,71.5-6.6
			c35.7,0,35.7-3.7,71.5-3.7c35.7,0,35.7,8.8,71.5,8.8s35.7-3.7,71.5-3.7c35.7,0,35.7-23.5,71.5-23.5c35.7,0,35.7,2.9,71.5,2.9
			c35.7,0,35.7-2.9,71.5-2.9c35.7,0,35.7-13.9,71.5-13.9c35.7,0,35.7,0.7,71.5,0.7c17.9,0,17.9-1.5,35.7-1.5
			c35.7,0,35.7-4.4,71.5-4.4c35.7,0,35.7-30.1,71.5-30.1c35.7,0,35.7-13.2,71.5-13.2s35.7,5.9,71.5,5.9c35.7,0,35.7,19.1,71.5,19.1
			c35.7,0,35.7,3.7,71.5,3.7V97.5c-35.7,0-35.7-9.5-71.5-9.5c-35.7,0-35.7,4.4-71.5,4.4c-35.7,0-35.7-7.3-71.5-7.3
			s-35.7,14.7-71.5,14.7c-35.7,0-35.7,25.7-71.5,25.7c-35.7,0-35.7,14.7-71.5,14.7c-17.9,0-17.9,1.5-35.7,1.5
			c-35.7,0-35.7-5.1-71.5-5.1c-35.7,0-35.7,24.2-71.5,24.2c-35.7,0-35.7-2.9-71.5-2.9c-35.7,0-35.7-5.9-71.5-5.9
			c-35.7,0-35.7,19.1-71.5,19.1c-35.7,0-35.7,3.7-71.5,3.7s-35.7,1.5-71.5,1.5c-35.7,0-35.7,3.7-71.5,3.7c-35.7,0-35.7,9.5-71.5,9.5
			s-35.7,11-71.5,11c-35.7,0-35.7-0.7-71.5-0.7S393.2,220,357.4,220c-35.7,0-35.7,0-71.5,0c-35.7,0-35.7-5.1-71.5-5.1
			s-35.7-6.6-71.5-6.6c-35.7,0-35.7,11-71.5,11C35.7,219.3,35.7,211.9,0,211.9z"/>
		<path class="st0" d="M0,209c35.7,0,35.7,2.9,71.5,2.9c35.7,0,35.7-8.1,71.5-8.1c35.7,0,35.7,0.7,71.5,0.7S250.2,220,286,220
			c35.7,0,35.7,0,71.5,0c35.7,0,35.7-35.2,71.5-35.2s35.7,9.5,71.5,9.5c35.7,0,35.7-21.3,71.5-21.3s35.7-3.7,71.5-3.7
			c35.7,0,35.7-3.7,71.5-3.7c35.7,0,35.7-2.9,71.5-2.9s35.7-2.2,71.5-2.2c35.7,0,35.7-11.7,71.5-11.7c35.7,0,35.7,1.5,71.5,1.5
			c35.7,0,35.7-2.9,71.5-2.9c35.7,0,35.7-21.3,71.5-21.3c35.7,0,35.7-0.7,71.5-0.7c17.9,0,17.9-1.5,35.7-1.5
			c35.7,0,35.7-17.6,71.5-17.6c35.7,0,35.7-21.3,71.5-21.3c35.7,0,35.7-22,71.5-22s35.7,1.5,71.5,1.5c35.7,0,35.7-22,71.5-22
			c35.7,0,35.7,12.5,71.5,12.5v-2.9c-35.7,0-35.7-9.5-71.5-9.5c-35.7,0-35.7,22-71.5,22c-35.7,0-35.7-1.5-71.5-1.5s-35.7,22-71.5,22
			c-35.7,0-35.7,21.3-71.5,21.3c-35.7,0-35.7,17.6-71.5,17.6c-17.9,0-17.9,0-35.7,0c-35.7,0-35.7,2.2-71.5,2.2
			c-35.7,0-35.7,21.3-71.5,21.3c-35.7,0-35.7,2.9-71.5,2.9c-35.7,0-35.7-1.5-71.5-1.5c-35.7,0-35.7,11.7-71.5,11.7
			c-35.7,0-35.7,2.2-71.5,2.2s-35.7,2.9-71.5,2.9c-35.7,0-35.7,3.7-71.5,3.7c-35.7,0-35.7,3.7-71.5,3.7s-35.7,21.3-71.5,21.3
			c-35.7,0-35.7-9.5-71.5-9.5S393.2,220,357.4,220c-35.7,0-35.7,0-71.5,0c-35.7,0-35.7-15.4-71.5-15.4s-35.7-0.7-71.5-0.7
			c-35.7,0-35.7,8.1-71.5,8.1C35.7,211.9,35.7,209,0,209z"/>
		<path class="st0" d="M0,223.7c35.7,0,35.7,2.9,71.5,2.9c35.7,0,35.7-12.5,71.5-12.5c35.7,0,35.7,16.9,71.5,16.9s35.7-11,71.5-11
			c35.7,0,35.7,0,71.5,0c35.7,0,35.7-4.4,71.5-4.4s35.7,3.7,71.5,3.7c35.7,0,35.7-0.7,71.5-0.7s35.7,15.4,71.5,15.4
			c35.7,0,35.7,9.5,71.5,9.5c35.7,0,35.7-10.3,71.5-10.3s35.7,5.1,71.5,5.1c35.7,0,35.7-2.9,71.5-2.9c35.7,0,35.7,7.3,71.5,7.3
			c35.7,0,35.7,8.8,71.5,8.8c35.7,0,35.7-12.5,71.5-12.5c35.7,0,35.7,3.7,71.5,3.7c17.9,0,17.9-35.2,35.7-35.2
			c35.7,0,35.7,17.6,71.5,17.6c35.7,0,35.7-6.6,71.5-6.6c35.7,0,35.7-22,71.5-22s35.7,17.6,71.5,17.6c35.7,0,35.7,22,71.5,22
			c35.7,0,35.7,5.1,71.5,5.1l0,0c-35.7,0-35.7-5.1-71.5-5.1c-35.7,0-35.7-22-71.5-22c-35.7,0-35.7-17.6-71.5-17.6s-35.7,22-71.5,22
			c-35.7,0-35.7,6.6-71.5,6.6c-35.7,0-35.7-17.6-71.5-17.6c-17.9,0-17.9,33.7-35.7,33.7c-35.7,0-35.7-2.2-71.5-2.2
			c-35.7,0-35.7,12.5-71.5,12.5c-35.7,0-35.7-8.8-71.5-8.8c-35.7,0-35.7-7.3-71.5-7.3c-35.7,0-35.7,2.9-71.5,2.9
			c-35.7,0-35.7-5.1-71.5-5.1s-35.7,8.8-71.5,8.8c-35.7,0-35.7-8.1-71.5-8.1c-35.7,0-35.7-15.4-71.5-15.4s-35.7,0.7-71.5,0.7
			c-35.7,0-35.7-3.7-71.5-3.7s-35.7,4.4-71.5,4.4c-35.7,0-35.7,0-71.5,0c-35.7,0-35.7,11-71.5,11s-35.7-16.9-71.5-16.9
			c-35.7,0-35.7,12.5-71.5,12.5C35.7,226.6,35.7,223.7,0,223.7z"/>
		<path class="st5" d="M0,209c35.7,0,35.7,2.9,71.5,2.9c35.7,0,35.7-8.1,71.5-8.1c35.7,0,35.7,0.7,71.5,0.7S250.2,220,286,220
			c35.7,0,35.7,0,71.5,0c35.7,0,35.7-35.2,71.5-35.2s35.7,9.5,71.5,9.5c35.7,0,35.7-21.3,71.5-21.3s35.7-3.7,71.5-3.7
			c35.7,0,35.7-3.7,71.5-3.7c35.7,0,35.7-2.9,71.5-2.9s35.7-2.2,71.5-2.2c35.7,0,35.7-11.7,71.5-11.7c35.7,0,35.7,1.5,71.5,1.5
			c35.7,0,35.7-2.9,71.5-2.9c35.7,0,35.7-21.3,71.5-21.3c35.7,0,35.7-2.2,71.5-2.2c17.9,0,17.9,0,35.7,0c35.7,0,35.7-17.6,71.5-17.6
			c35.7,0,35.7-21.3,71.5-21.3c35.7,0,35.7-22,71.5-22s35.7,1.5,71.5,1.5c35.7,0,35.7-22,71.5-22c35.7,0,35.7,9.5,71.5,9.5V-5.1
			c-35.7,0-35.7,9.5-71.5,9.5c-35.7,0-35.7,26.4-71.5,26.4c-35.7,0-35.7,4.4-71.5,4.4s-35.7,13.2-71.5,13.2
			c-35.7,0-35.7,21.3-71.5,21.3c-35.7,0-35.7,16.1-71.5,16.1c-17.9,0-17.9,8.8-35.7,8.8c-35.7,0-35.7,24.2-71.5,24.2
			c-35.7,0-35.7,15.4-71.5,15.4c-35.7,0-35.7,1.5-71.5,1.5c-35.7,0-35.7,2.9-71.5,2.9c-35.7,0-35.7,4.4-71.5,4.4
			c-35.7,0-35.7-0.7-71.5-0.7s-35.7,1.5-71.5,1.5c-35.7,0-35.7,16.9-71.5,16.9c-35.7,0-35.7,6.6-71.5,6.6s-35.7,3.7-71.5,3.7
			c-35.7,0-35.7-0.7-71.5-0.7S393.2,220,357.4,220c-35.7,0-35.7,0-71.5,0c-35.7,0-35.7-37.4-71.5-37.4s-35.7,6.6-71.5,6.6
			c-35.7,0-35.7,0.7-71.5,0.7c-35.7,0-35.7-5.9-71.5-5.9V209z"/>
		<path class="st0" d="M0,255.9c35.7,0,35.7-5.9,71.5-5.9c35.7,0,35.7,0.7,71.5,0.7c35.7,0,35.7,6.6,71.5,6.6S250.2,220,286,220
			c35.7,0,35.7,0,71.5,0c35.7,0,35.7,49.9,71.5,49.9s35.7-0.7,71.5-0.7c35.7,0,35.7,3.7,71.5,3.7s35.7,6.6,71.5,6.6
			c35.7,0,35.7,16.9,71.5,16.9c35.7,0,35.7,1.5,71.5,1.5s35.7-2.2,71.5-2.2c35.7,0,35.7,5.9,71.5,5.9c35.7,0,35.7,2.9,71.5,2.9
			c35.7,0,35.7,1.5,71.5,1.5c35.7,0,35.7,15.4,71.5,15.4c35.7,0,35.7,16.9,71.5,16.9c17.9,0,17.9,7.3,35.7,7.3
			c35.7,0,35.7,16.1,71.5,16.1c35.7,0,35.7,24.2,71.5,24.2c35.7,0,35.7,2.9,71.5,2.9s35.7,0,71.5,0c35.7,0,35.7,35.2,71.5,35.2
			c35.7,0,35.7-6.6,71.5-6.6v-24.9c-35.7,0-35.7,31.5-71.5,31.5c-35.7,0-35.7-35.2-71.5-35.2c-35.7,0-35.7,0-71.5,0
			s-35.7-2.9-71.5-2.9c-35.7,0-35.7-24.2-71.5-24.2c-35.7,0-35.7-16.1-71.5-16.1c-17.9,0-17.9-7.3-35.7-7.3
			c-35.7,0-35.7-16.9-71.5-16.9c-35.7,0-35.7-15.4-71.5-15.4c-35.7,0-35.7-1.5-71.5-1.5c-35.7,0-35.7-2.9-71.5-2.9
			c-35.7,0-35.7-5.9-71.5-5.9c-35.7,0-35.7,2.2-71.5,2.2s-35.7-1.5-71.5-1.5c-35.7,0-35.7-16.9-71.5-16.9c-35.7,0-35.7-6.6-71.5-6.6
			s-35.7-3.7-71.5-3.7c-35.7,0-35.7,0.7-71.5,0.7S393.2,220,357.4,220c-35.7,0-35.7,0-71.5,0c-35.7,0-35.7,37.4-71.5,37.4
			s-35.7-6.6-71.5-6.6c-35.7,0-35.7-0.7-71.5-0.7C35.7,250.1,35.7,255.9,0,255.9z"/>
		<path class="st0" d="M0,222.2c35.7,0,35.7,0,71.5,0c35.7,0,35.7-12.5,71.5-12.5c35.7,0,35.7,11,71.5,11s35.7-0.7,71.5-0.7
			c35.7,0,35.7,0,71.5,0c35.7,0,35.7-10.3,71.5-10.3s35.7-2.2,71.5-2.2c35.7,0,35.7-16.9,71.5-16.9s35.7-0.7,71.5-0.7
			c35.7,0,35.7,0.7,71.5,0.7c35.7,0,35.7,10.3,71.5,10.3s35.7-11,71.5-11c35.7,0,35.7-26.4,71.5-26.4c35.7,0,35.7,2.9,71.5,2.9
			c35.7,0,35.7,0,71.5,0c35.7,0,35.7-16.9,71.5-16.9c35.7,0,35.7,11,71.5,11c17.9,0,17.9-1.5,35.7-1.5c35.7,0,35.7,2.9,71.5,2.9
			c35.7,0,35.7-22.7,71.5-22.7c35.7,0,35.7-14.7,71.5-14.7s35.7,22,71.5,22c35.7,0,35.7,42.5,71.5,42.5c35.7,0,35.7-13.9,71.5-13.9
			v-2.9c-35.7,0-35.7,8.1-71.5,8.1c-35.7,0-35.7-42.5-71.5-42.5c-35.7,0-35.7-16.1-71.5-16.1s-35.7,14.7-71.5,14.7
			c-35.7,0-35.7,25.7-71.5,25.7c-35.7,0-35.7-2.9-71.5-2.9c-17.9,0-17.9,1.5-35.7,1.5c-35.7,0-35.7-11-71.5-11
			c-35.7,0-35.7,16.9-71.5,16.9c-35.7,0-35.7,0-71.5,0c-35.7,0-35.7-2.9-71.5-2.9c-35.7,0-35.7,24.9-71.5,24.9
			c-35.7,0-35.7,12.5-71.5,12.5s-35.7-10.3-71.5-10.3c-35.7,0-35.7-3.7-71.5-3.7c-35.7,0-35.7,2.2-71.5,2.2s-35.7,18.3-71.5,18.3
			c-35.7,0-35.7,2.2-71.5,2.2S393.2,220,357.4,220c-35.7,0-35.7,0-71.5,0c-35.7,0-35.7,0.7-71.5,0.7s-35.7-11-71.5-11
			c-35.7,0-35.7,12.5-71.5,12.5C35.7,222.2,35.7,222.2,0,222.2z"/>
		<path class="st0" d="M0,223.7c35.7,0,35.7,2.9,71.5,2.9c35.7,0,35.7-12.5,71.5-12.5c35.7,0,35.7,16.9,71.5,16.9s35.7-11,71.5-11
			c35.7,0,35.7,0,71.5,0c35.7,0,35.7-4.4,71.5-4.4s35.7,3.7,71.5,3.7c35.7,0,35.7-0.7,71.5-0.7s35.7,15.4,71.5,15.4
			c35.7,0,35.7,9.5,71.5,9.5c35.7,0,35.7-8.8,71.5-8.8s35.7,3.7,71.5,3.7c35.7,0,35.7-2.9,71.5-2.9c35.7,0,35.7,7.3,71.5,7.3
			c35.7,0,35.7,8.8,71.5,8.8c35.7,0,35.7-12.5,71.5-12.5c35.7,0,35.7,3.7,71.5,3.7c17.9,0,17.9-35.2,35.7-35.2
			c35.7,0,35.7,17.6,71.5,17.6c35.7,0,35.7-6.6,71.5-6.6c35.7,0,35.7-22,71.5-22s35.7,17.6,71.5,17.6c35.7,0,35.7,22,71.5,22
			c35.7,0,35.7,5.1,71.5,5.1l0,0c-35.7,0-35.7-5.1-71.5-5.1c-35.7,0-35.7-22-71.5-22c-35.7,0-35.7-17.6-71.5-17.6s-35.7,22-71.5,22
			c-35.7,0-35.7,6.6-71.5,6.6c-35.7,0-35.7-17.6-71.5-17.6c-17.9,0-17.9,35.2-35.7,35.2c-35.7,0-35.7-3.7-71.5-3.7
			c-35.7,0-35.7,12.5-71.5,12.5c-35.7,0-35.7-8.8-71.5-8.8c-35.7,0-35.7-7.3-71.5-7.3c-35.7,0-35.7,2.9-71.5,2.9
			c-35.7,0-35.7-5.1-71.5-5.1s-35.7,10.3-71.5,10.3c-35.7,0-35.7-9.5-71.5-9.5c-35.7,0-35.7-15.4-71.5-15.4s-35.7,0.7-71.5,0.7
			c-35.7,0-35.7-3.7-71.5-3.7s-35.7,4.4-71.5,4.4c-35.7,0-35.7,0-71.5,0c-35.7,0-35.7,11-71.5,11s-35.7-16.9-71.5-16.9
			c-35.7,0-35.7,12.5-71.5,12.5C35.7,226.6,35.7,223.7,0,223.7z"/>
		<path class="st6" d="M0,254.5c35.7,0,35.7-5.9,71.5-5.9c35.7,0,35.7-8.1,71.5-8.1c35.7,0,35.7,15.4,71.5,15.4S250.2,220,286,220
			c35.7,0,35.7,0,71.5,0c35.7,0,35.7,45.5,71.5,45.5s35.7,0.7,71.5,0.7c35.7,0,35.7,2.2,71.5,2.2s35.7,5.1,71.5,5.1
			c35.7,0,35.7,18.3,71.5,18.3c35.7,0,35.7,1.5,71.5,1.5s35.7,0.7,71.5,0.7c35.7,0,35.7,2.9,71.5,2.9c35.7,0,35.7,4.4,71.5,4.4
			c35.7,0,35.7-1.5,71.5-1.5c35.7,0,35.7,13.9,71.5,13.9c35.7,0,35.7,13.9,71.5,13.9c17.9,0,17.9-1.5,35.7-1.5
			c35.7,0,35.7,13.2,71.5,13.2c35.7,0,35.7,21.3,71.5,21.3c35.7,0,35.7-7.3,71.5-7.3s35.7-2.9,71.5-2.9c35.7,0,35.7,36.7,71.5,36.7
			c35.7,0,35.7-37.4,71.5-37.4l0,0c-35.7,0-35.7-6.6-71.5-6.6c-35.7,0-35.7-14.7-71.5-14.7c-35.7,0-35.7-7.3-71.5-7.3
			s-35.7,20.5-71.5,20.5c-35.7,0-35.7-28.6-71.5-28.6c-35.7,0-35.7-20.5-71.5-20.5c-17.9,0-17.9,35.2-35.7,35.2
			c-35.7,0-35.7-13.9-71.5-13.9c-35.7,0-35.7-13.9-71.5-13.9c-35.7,0-35.7,1.5-71.5,1.5c-35.7,0-35.7-4.4-71.5-4.4
			c-35.7,0-35.7-2.9-71.5-2.9c-35.7,0-35.7-0.7-71.5-0.7s-35.7-1.5-71.5-1.5c-35.7,0-35.7-18.3-71.5-18.3c-35.7,0-35.7-5.1-71.5-5.1
			s-35.7-2.2-71.5-2.2c-35.7,0-35.7-0.7-71.5-0.7S393.2,220,357.4,220c-35.7,0-35.7,0-71.5,0c-35.7,0-35.7,35.9-71.5,35.9
			s-35.7-15.4-71.5-15.4c-35.7,0-35.7,8.1-71.5,8.1C35.7,248.6,35.7,254.5,0,254.5z"/>
		<path class="st0" d="M0,248.6c35.7,0,35.7-8.8,71.5-8.8c35.7,0,35.7-16.9,71.5-16.9c35.7,0,35.7,27.1,71.5,27.1S250.2,220,286,220
			c35.7,0,35.7,0,71.5,0c35.7,0,35.7,32.3,71.5,32.3s35.7-2.2,71.5-2.2c35.7,0,35.7,8.1,71.5,8.1s35.7,0.7,71.5,0.7
			c35.7,0,35.7,22.7,71.5,22.7c35.7,0,35.7,1.5,71.5,1.5s35.7-0.7,71.5-0.7c35.7,0,35.7,0,71.5,0c35.7,0,35.7,1.5,71.5,1.5
			c35.7,0,35.7,4.4,71.5,4.4c35.7,0,35.7,16.9,71.5,16.9c35.7,0,35.7,6.6,71.5,6.6c17.9,0,17.9-38.1,35.7-38.1
			c35.7,0,35.7,20.5,71.5,20.5c35.7,0,35.7-2.2,71.5-2.2c35.7,0,35.7-7.3,71.5-7.3s35.7-10.3,71.5-10.3c35.7,0,35.7,27.9,71.5,27.9
			c35.7,0,35.7,13.9,71.5,13.9v-4.4c-35.7,0-35.7-11-71.5-11c-35.7,0-35.7-30.8-71.5-30.8c-35.7,0-35.7,13.2-71.5,13.2
			s-35.7,8.8-71.5,8.8c-35.7,0-35.7,2.2-71.5,2.2c-35.7,0-35.7-20.5-71.5-20.5c-17.9,0-17.9,38.1-35.7,38.1
			c-35.7,0-35.7-6.6-71.5-6.6c-35.7,0-35.7-16.9-71.5-16.9c-35.7,0-35.7-4.4-71.5-4.4c-35.7,0-35.7-1.5-71.5-1.5
			c-35.7,0-35.7,0-71.5,0c-35.7,0-35.7,0.7-71.5,0.7s-35.7-1.5-71.5-1.5c-35.7,0-35.7-22.7-71.5-22.7c-35.7,0-35.7-0.7-71.5-0.7
			s-35.7-8.1-71.5-8.1c-35.7,0-35.7,2.2-71.5,2.2S393.2,220,357.4,220c-35.7,0-35.7,0-71.5,0c-35.7,0-35.7,30.1-71.5,30.1
			s-35.7-27.1-71.5-27.1c-35.7,0-35.7,16.9-71.5,16.9C35.7,239.8,35.7,248.6,0,248.6z"/>
		<path class="st0" d="M0,211.9c35.7,0,35.7,7.3,71.5,7.3c35.7,0,35.7-11,71.5-11c35.7,0,35.7,6.6,71.5,6.6s35.7,5.1,71.5,5.1
			c35.7,0,35.7,0,71.5,0c35.7,0,35.7-20.5,71.5-20.5s35.7,0.7,71.5,0.7c35.7,0,35.7-11,71.5-11s35.7-9.5,71.5-9.5
			c35.7,0,35.7-3.7,71.5-3.7c35.7,0,35.7-1.5,71.5-1.5s35.7-3.7,71.5-3.7c35.7,0,35.7-19.1,71.5-19.1c35.7,0,35.7,5.9,71.5,5.9
			c35.7,0,35.7,2.9,71.5,2.9c35.7,0,35.7-24.2,71.5-24.2c35.7,0,35.7,5.1,71.5,5.1c17.9,0,17.9-1.5,35.7-1.5
			c35.7,0,35.7-14.7,71.5-14.7c35.7,0,35.7-25.7,71.5-25.7c35.7,0,35.7-14.7,71.5-14.7s35.7,7.3,71.5,7.3c35.7,0,35.7-4.4,71.5-4.4
			c35.7,0,35.7,9.5,71.5,9.5v-2.9c-35.7,0-35.7-18.3-71.5-18.3c-35.7,0-35.7,11.7-71.5,11.7c-35.7,0-35.7-2.9-71.5-2.9
			s-35.7,13.2-71.5,13.2c-35.7,0-35.7,27.1-71.5,27.1c-35.7,0-35.7,10.3-71.5,10.3c-17.9,0-17.9,5.9-35.7,5.9
			c-35.7,0-35.7-5.1-71.5-5.1c-35.7,0-35.7,24.2-71.5,24.2c-35.7,0-35.7-2.9-71.5-2.9c-35.7,0-35.7-5.9-71.5-5.9
			c-35.7,0-35.7,19.1-71.5,19.1c-35.7,0-35.7,3.7-71.5,3.7s-35.7,1.5-71.5,1.5c-35.7,0-35.7,3.7-71.5,3.7c-35.7,0-35.7,9.5-71.5,9.5
			s-35.7,11-71.5,11c-35.7,0-35.7-0.7-71.5-0.7S393.2,220,357.4,220c-35.7,0-35.7,0-71.5,0c-35.7,0-35.7-5.1-71.5-5.1
			s-35.7-6.6-71.5-6.6c-35.7,0-35.7,11-71.5,11C35.7,219.3,35.7,211.9,0,211.9z"/>
		<path class="st0" d="M0,255.9c35.7,0,35.7-5.9,71.5-5.9c35.7,0,35.7,0.7,71.5,0.7c35.7,0,35.7,6.6,71.5,6.6S250.2,220,286,220
			c35.7,0,35.7,0,71.5,0c35.7,0,35.7,49.9,71.5,49.9s35.7-0.7,71.5-0.7c35.7,0,35.7,3.7,71.5,3.7s35.7,6.6,71.5,6.6
			c35.7,0,35.7,16.9,71.5,16.9c35.7,0,35.7,1.5,71.5,1.5s35.7-2.2,71.5-2.2c35.7,0,35.7,5.9,71.5,5.9c35.7,0,35.7,2.9,71.5,2.9
			c35.7,0,35.7,1.5,71.5,1.5c35.7,0,35.7,15.4,71.5,15.4c35.7,0,35.7,22.7,71.5,22.7c17.9,0,17.9,10.3,35.7,10.3
			c35.7,0,35.7,16.1,71.5,16.1c35.7,0,35.7,21.3,71.5,21.3c35.7,0,35.7,13.2,71.5,13.2s35.7,4.4,71.5,4.4
			c35.7,0,35.7,26.4,71.5,26.4c35.7,0,35.7,6.6,71.5,6.6v-24.9c-35.7,0-35.7,6.6-71.5,6.6c-35.7,0-35.7-35.2-71.5-35.2
			c-35.7,0-35.7,0-71.5,0s-35.7-2.9-71.5-2.9c-35.7,0-35.7-24.2-71.5-24.2c-35.7,0-35.7-16.1-71.5-16.1c-17.9,0-17.9-7.3-35.7-7.3
			c-35.7,0-35.7-16.9-71.5-16.9c-35.7,0-35.7-15.4-71.5-15.4c-35.7,0-35.7-1.5-71.5-1.5c-35.7,0-35.7-2.9-71.5-2.9
			c-35.7,0-35.7-5.9-71.5-5.9c-35.7,0-35.7,2.2-71.5,2.2s-35.7-1.5-71.5-1.5c-35.7,0-35.7-16.9-71.5-16.9c-35.7,0-35.7-6.6-71.5-6.6
			s-35.7-3.7-71.5-3.7c-35.7,0-35.7,0.7-71.5,0.7S393.2,220,357.4,220c-35.7,0-35.7,0-71.5,0c-35.7,0-35.7,37.4-71.5,37.4
			s-35.7-6.6-71.5-6.6c-35.7,0-35.7-0.7-71.5-0.7C35.7,250.1,35.7,255.9,0,255.9z"/>
		<path class="st7" d="M0,222.2c35.7,0,35.7,1.5,71.5,1.5c35.7,0,35.7-11,71.5-11c35.7,0,35.7,16.9,71.5,16.9s35.7-9.5,71.5-9.5
			c35.7,0,35.7,0,71.5,0c35.7,0,35.7-10.3,71.5-10.3s35.7,8.1,71.5,8.1c35.7,0,35.7-3.7,71.5-3.7s35.7,6.6,71.5,6.6
			c35.7,0,35.7,6.6,71.5,6.6c35.7,0,35.7-7.3,71.5-7.3s35.7-6.6,71.5-6.6c35.7,0,35.7-10.3,71.5-10.3c35.7,0,35.7-2.9,71.5-2.9
			c35.7,0,35.7,4.4,71.5,4.4c35.7,0,35.7-8.1,71.5-8.1c35.7,0,35.7,40.3,71.5,40.3c17.9,0,17.9-29.3,35.7-29.3
			c35.7,0,35.7,16.1,71.5,16.1c35.7,0,35.7-5.1,71.5-5.1c35.7,0,35.7-22,71.5-22s35.7,17.6,71.5,17.6c35.7,0,35.7,22,71.5,22
			c35.7,0,35.7,0.7,71.5,0.7l0,0c-35.7,0-35.7-0.7-71.5-0.7c-35.7,0-35.7-22-71.5-22c-35.7,0-35.7-17.6-71.5-17.6s-35.7,22-71.5,22
			c-35.7,0-35.7,5.1-71.5,5.1c-35.7,0-35.7-16.1-71.5-16.1c-17.9,0-17.9,29.3-35.7,29.3c-35.7,0-35.7-82.9-71.5-82.9
			c-35.7,0-35.7,13.9-71.5,13.9c-35.7,0-35.7,0-71.5,0c-35.7,0-35.7-4.4-71.5-4.4c-35.7,0-35.7,26.4-71.5,26.4
			c-35.7,0-35.7,11-71.5,11s-35.7-10.3-71.5-10.3c-35.7,0-35.7-0.7-71.5-0.7c-35.7,0-35.7,0.7-71.5,0.7s-35.7,27.1-71.5,27.1
			c-35.7,0-35.7-8.1-71.5-8.1S393.2,220,357.4,220c-35.7,0-35.7,0-71.5,0c-35.7,0-35.7,9.5-71.5,9.5s-35.7-16.9-71.5-16.9
			c-35.7,0-35.7,11-71.5,11C35.7,223.7,35.7,222.2,0,222.2z"/>
		<path class="st0" d="M0,255.9c35.7,0,35.7-5.9,71.5-5.9c35.7,0,35.7,0.7,71.5,0.7c35.7,0,35.7,6.6,71.5,6.6S250.2,220,286,220
			c35.7,0,35.7,0,71.5,0c35.7,0,35.7,49.9,71.5,49.9s35.7-0.7,71.5-0.7c35.7,0,35.7,3.7,71.5,3.7s35.7,6.6,71.5,6.6
			c35.7,0,35.7,16.9,71.5,16.9c35.7,0,35.7,1.5,71.5,1.5s35.7-0.7,71.5-0.7c35.7,0,35.7,4.4,71.5,4.4c35.7,0,35.7,2.9,71.5,2.9
			c35.7,0,35.7,1.5,71.5,1.5c35.7,0,35.7,15.4,71.5,15.4c35.7,0,35.7,24.2,71.5,24.2c17.9,0,17.9,8.8,35.7,8.8
			c35.7,0,35.7,16.1,71.5,16.1c35.7,0,35.7,21.3,71.5,21.3c35.7,0,35.7,13.2,71.5,13.2s35.7,4.4,71.5,4.4
			c35.7,0,35.7,26.4,71.5,26.4c35.7,0,35.7,9.5,71.5,9.5v-2.9c-35.7,0-35.7-6.6-71.5-6.6c-35.7,0-35.7-26.4-71.5-26.4
			c-35.7,0-35.7-4.4-71.5-4.4s-35.7-13.2-71.5-13.2c-35.7,0-35.7-21.3-71.5-21.3c-35.7,0-35.7-16.1-71.5-16.1
			c-17.9,0-17.9-10.3-35.7-10.3c-35.7,0-35.7-22.7-71.5-22.7c-35.7,0-35.7-15.4-71.5-15.4c-35.7,0-35.7-1.5-71.5-1.5
			c-35.7,0-35.7-2.9-71.5-2.9c-35.7,0-35.7-5.9-71.5-5.9c-35.7,0-35.7,2.2-71.5,2.2s-35.7-1.5-71.5-1.5c-35.7,0-35.7-16.9-71.5-16.9
			c-35.7,0-35.7-6.6-71.5-6.6s-35.7-3.7-71.5-3.7c-35.7,0-35.7,0.7-71.5,0.7S393.2,220,357.4,220c-35.7,0-35.7,0-71.5,0
			c-35.7,0-35.7,37.4-71.5,37.4s-35.7-6.6-71.5-6.6c-35.7,0-35.7-0.7-71.5-0.7C35.7,250.1,35.7,255.9,0,255.9z"/>
		<path class="st8" d="M0,211.9c35.7,0,35.7,7.3,71.5,7.3c35.7,0,35.7-11,71.5-11c35.7,0,35.7,6.6,71.5,6.6s35.7,5.1,71.5,5.1
			c35.7,0,35.7,0,71.5,0c35.7,0,35.7-20.5,71.5-20.5s35.7,0.7,71.5,0.7c35.7,0,35.7-11,71.5-11s35.7-9.5,71.5-9.5
			c35.7,0,35.7-3.7,71.5-3.7c35.7,0,35.7-1.5,71.5-1.5s35.7-3.7,71.5-3.7c35.7,0,35.7-19.1,71.5-19.1c35.7,0,35.7,5.9,71.5,5.9
			c35.7,0,35.7,2.9,71.5,2.9c35.7,0,35.7-24.2,71.5-24.2c35.7,0,35.7,5.1,71.5,5.1c17.9,0,17.9-5.9,35.7-5.9
			c35.7,0,35.7-10.3,71.5-10.3c35.7,0,35.7-27.1,71.5-27.1c35.7,0,35.7-13.2,71.5-13.2s35.7,2.9,71.5,2.9
			c35.7,0,35.7-11.7,71.5-11.7c35.7,0,35.7,18.3,71.5,18.3V74.1c-35.7,0-35.7-19.8-71.5-19.8c-35.7,0-35.7,17.6-71.5,17.6
			c-35.7,0-35.7-7.3-71.5-7.3S1429.8,88,1394,88c-35.7,0-35.7,33-71.5,33c-35.7,0-35.7,10.3-71.5,10.3c-17.9,0-17.9,4.4-35.7,4.4
			c-35.7,0-35.7-8.1-71.5-8.1c-35.7,0-35.7,21.3-71.5,21.3c-35.7,0-35.7,2.9-71.5,2.9c-35.7,0-35.7-2.9-71.5-2.9
			c-35.7,0-35.7,16.1-71.5,16.1c-35.7,0-35.7-2.2-71.5-2.2s-35.7,2.9-71.5,2.9c-35.7,0-35.7,3.7-71.5,3.7c-35.7,0-35.7,5.1-71.5,5.1
			s-35.7,19.8-71.5,19.8c-35.7,0-35.7-9.5-71.5-9.5S393.2,220,357.4,220c-35.7,0-35.7,0-71.5,0c-35.7,0-35.7-15.4-71.5-15.4
			s-35.7-0.7-71.5-0.7c-35.7,0-35.7,8.1-71.5,8.1c-35.7,0-35.7-2.9-71.5-2.9V211.9z"/>
		<path class="st9" d="M0,244.2c35.7,0,35.7-10.3,71.5-10.3c35.7,0,35.7-13.9,71.5-13.9c35.7,0,35.7,24.2,71.5,24.2
			S250.2,220,286,220c35.7,0,35.7,0,71.5,0c35.7,0,35.7,19.1,71.5,19.1s35.7-3.7,71.5-3.7c35.7,0,35.7,2.2,71.5,2.2s35.7,11,71.5,11
			c35.7,0,35.7,9.5,71.5,9.5c35.7,0,35.7,2.9,71.5,2.9s35.7,6.6,71.5,6.6c35.7,0,35.7,0,71.5,0c35.7,0,35.7,2.9,71.5,2.9
			c35.7,0,35.7,13.2,71.5,13.2c35.7,0,35.7-0.7,71.5-0.7c35.7,0,35.7-25.7,71.5-25.7c17.9,0,17.9-27.9,35.7-27.9
			c35.7,0,35.7,23.5,71.5,23.5c35.7,0,35.7-8.1,71.5-8.1c35.7,0,35.7-14.7,71.5-14.7s35.7,4.4,71.5,4.4c35.7,0,35.7,24.9,71.5,24.9
			c35.7,0,35.7,12.5,71.5,12.5v-22c-35.7,0-35.7-6.6-71.5-6.6c-35.7,0-35.7-22-71.5-22c-35.7,0-35.7-11.7-71.5-11.7
			s-35.7,19.1-71.5,19.1c-35.7,0-35.7,13.9-71.5,13.9c-35.7,0-35.7-26.4-71.5-26.4c-17.9,0-17.9,36.7-35.7,36.7
			c-35.7,0-35.7,8.1-71.5,8.1c-35.7,0-35.7,15.4-71.5,15.4c-35.7,0-35.7-13.2-71.5-13.2c-35.7,0-35.7-2.9-71.5-2.9
			c-35.7,0-35.7-7.3-71.5-7.3c-35.7,0-35.7-0.7-71.5-0.7s-35.7,5.9-71.5,5.9c-35.7,0-35.7-12.5-71.5-12.5
			c-35.7,0-35.7-16.9-71.5-16.9s-35.7,3.7-71.5,3.7c-35.7,0-35.7-8.1-71.5-8.1s-35.7-4.4-71.5-4.4c-35.7,0-35.7,0-71.5,0
			c-35.7,0-35.7,19.8-71.5,19.8s-35.7-21.3-71.5-21.3c-35.7,0-35.7,13.9-71.5,13.9c-35.7,0-35.7,7.3-71.5,7.3V244.2z"/>
		<path class="st0" d="M0,222.2c35.7,0,35.7,1.5,71.5,1.5c35.7,0,35.7-11,71.5-11c35.7,0,35.7,16.9,71.5,16.9s35.7-9.5,71.5-9.5
			c35.7,0,35.7,0,71.5,0c35.7,0,35.7-10.3,71.5-10.3s35.7,8.1,71.5,8.1c35.7,0,35.7-27.1,71.5-27.1s35.7-0.7,71.5-0.7
			c35.7,0,35.7,0.7,71.5,0.7c35.7,0,35.7,10.3,71.5,10.3s35.7-11,71.5-11c35.7,0,35.7-26.4,71.5-26.4c35.7,0,35.7,4.4,71.5,4.4
			c35.7,0,35.7-1.5,71.5-1.5c35.7,0,35.7-16.9,71.5-16.9c35.7,0,35.7,53.5,71.5,53.5c17.9,0,17.9,0,35.7,0
			c35.7,0,35.7,17.6,71.5,17.6c35.7,0,35.7-2.2,71.5-2.2c35.7,0,35.7-22,71.5-22s35.7,16.1,71.5,16.1c35.7,0,35.7,22,71.5,22
			c35.7,0,35.7,0.7,71.5,0.7v-1.5c-35.7,0-35.7-2.2-71.5-2.2c-35.7,0-35.7-19.1-71.5-19.1c-35.7,0-35.7-19.1-71.5-19.1
			s-35.7,24.9-71.5,24.9c-35.7,0-35.7,0.7-71.5,0.7c-35.7,0-35.7-19.1-71.5-19.1c-17.9,0-17.9,2.9-35.7,2.9
			c-35.7,0-35.7-53.5-71.5-53.5c-35.7,0-35.7,16.9-71.5,16.9c-35.7,0-35.7,1.5-71.5,1.5c-35.7,0-35.7-4.4-71.5-4.4
			c-35.7,0-35.7,26.4-71.5,26.4c-35.7,0-35.7,11-71.5,11s-35.7-10.3-71.5-10.3c-35.7,0-35.7-0.7-71.5-0.7c-35.7,0-35.7,0.7-71.5,0.7
			s-35.7,27.1-71.5,27.1c-35.7,0-35.7-8.1-71.5-8.1S393.2,220,357.4,220c-35.7,0-35.7,0-71.5,0c-35.7,0-35.7,9.5-71.5,9.5
			s-35.7-16.9-71.5-16.9c-35.7,0-35.7,11-71.5,11C35.7,223.7,35.7,222.2,0,222.2z"/>
		<path class="st0" d="M0,222.2c35.7,0,35.7,1.5,71.5,1.5c35.7,0,35.7-11,71.5-11c35.7,0,35.7,16.9,71.5,16.9s35.7-9.5,71.5-9.5
			c35.7,0,35.7,0,71.5,0c35.7,0,35.7-10.3,71.5-10.3s35.7,8.1,71.5,8.1c35.7,0,35.7-27.1,71.5-27.1s35.7-0.7,71.5-0.7
			c35.7,0,35.7,0.7,71.5,0.7c35.7,0,35.7,10.3,71.5,10.3s35.7-11,71.5-11c35.7,0,35.7-26.4,71.5-26.4c35.7,0,35.7,4.4,71.5,4.4
			c35.7,0,35.7-1.5,71.5-1.5c35.7,0,35.7-16.9,71.5-16.9c35.7,0,35.7,87.3,71.5,87.3c17.9,0,17.9-29.3,35.7-29.3
			c35.7,0,35.7,16.1,71.5,16.1c35.7,0,35.7-5.1,71.5-5.1c35.7,0,35.7-22,71.5-22s35.7,17.6,71.5,17.6c35.7,0,35.7,22,71.5,22
			c35.7,0,35.7,0.7,71.5,0.7l0,0c-35.7,0-35.7-0.7-71.5-0.7c-35.7,0-35.7-22-71.5-22c-35.7,0-35.7-17.6-71.5-17.6s-35.7,22-71.5,22
			c-35.7,0-35.7,5.1-71.5,5.1c-35.7,0-35.7-16.1-71.5-16.1c-17.9,0-17.9-4.4-35.7-4.4c-35.7,0-35.7-53.5-71.5-53.5
			c-35.7,0-35.7,16.9-71.5,16.9c-35.7,0-35.7,1.5-71.5,1.5c-35.7,0-35.7-4.4-71.5-4.4c-35.7,0-35.7,26.4-71.5,26.4
			c-35.7,0-35.7,11-71.5,11s-35.7-10.3-71.5-10.3c-35.7,0-35.7-0.7-71.5-0.7c-35.7,0-35.7,0.7-71.5,0.7s-35.7,27.1-71.5,27.1
			c-35.7,0-35.7-8.1-71.5-8.1S393.2,220,357.4,220c-35.7,0-35.7,0-71.5,0c-35.7,0-35.7,9.5-71.5,9.5s-35.7-16.9-71.5-16.9
			c-35.7,0-35.7,11-71.5,11C35.7,223.7,35.7,222.2,0,222.2z"/>
		<path class="st10" d="M0,254.5c35.7,0,35.7-5.9,71.5-5.9c35.7,0,35.7-8.1,71.5-8.1c35.7,0,35.7,15.4,71.5,15.4S250.2,220,286,220
			c35.7,0,35.7,0,71.5,0c35.7,0,35.7,45.5,71.5,45.5s35.7,0.7,71.5,0.7c35.7,0,35.7,2.2,71.5,2.2s35.7,5.1,71.5,5.1
			c35.7,0,35.7,18.3,71.5,18.3c35.7,0,35.7,1.5,71.5,1.5s35.7,0.7,71.5,0.7c35.7,0,35.7,2.9,71.5,2.9c35.7,0,35.7,4.4,71.5,4.4
			c35.7,0,35.7-1.5,71.5-1.5c35.7,0,35.7,13.9,71.5,13.9c35.7,0,35.7,13.9,71.5,13.9c17.9,0,17.9-35.2,35.7-35.2
			c35.7,0,35.7,20.5,71.5,20.5c35.7,0,35.7,28.6,71.5,28.6c35.7,0,35.7-20.5,71.5-20.5s35.7,7.3,71.5,7.3
			c35.7,0,35.7,14.7,71.5,14.7c35.7,0,35.7,6.6,71.5,6.6v-33.7c-35.7,0-35.7-13.9-71.5-13.9c-35.7,0-35.7-27.9-71.5-27.9
			c-35.7,0-35.7,10.3-71.5,10.3s-35.7,7.3-71.5,7.3c-35.7,0-35.7,2.2-71.5,2.2c-35.7,0-35.7-20.5-71.5-20.5
			c-17.9,0-17.9,38.1-35.7,38.1c-35.7,0-35.7-6.6-71.5-6.6c-35.7,0-35.7-16.9-71.5-16.9c-35.7,0-35.7-4.4-71.5-4.4
			c-35.7,0-35.7-1.5-71.5-1.5c-35.7,0-35.7,0-71.5,0c-35.7,0-35.7,0.7-71.5,0.7s-35.7-1.5-71.5-1.5c-35.7,0-35.7-22.7-71.5-22.7
			c-35.7,0-35.7-0.7-71.5-0.7s-35.7-8.1-71.5-8.1c-35.7,0-35.7,2.2-71.5,2.2S393.2,220,357.4,220c-35.7,0-35.7,0-71.5,0
			c-35.7,0-35.7,30.1-71.5,30.1s-35.7-27.1-71.5-27.1c-35.7,0-35.7,16.9-71.5,16.9c-35.7,0-35.7,8.8-71.5,8.8V254.5z"/>
		<path class="st0" d="M0,222.2c35.7,0,35.7,2.9,71.5,2.9c35.7,0,35.7-12.5,71.5-12.5c35.7,0,35.7,16.9,71.5,16.9s35.7-9.5,71.5-9.5
			c35.7,0,35.7,0,71.5,0c35.7,0,35.7-8.8,71.5-8.8s35.7,6.6,71.5,6.6c35.7,0,35.7-0.7,71.5-0.7s35.7,16.9,71.5,16.9
			c35.7,0,35.7,8.1,71.5,8.1c35.7,0,35.7-8.8,71.5-8.8s35.7,5.1,71.5,5.1c35.7,0,35.7-2.9,71.5-2.9c35.7,0,35.7,5.9,71.5,5.9
			c35.7,0,35.7,10.3,71.5,10.3c35.7,0,35.7-12.5,71.5-12.5c35.7,0,35.7,2.2,71.5,2.2c17.9,0,17.9-33.7,35.7-33.7
			c35.7,0,35.7,16.1,71.5,16.1c35.7,0,35.7-5.1,71.5-5.1c35.7,0,35.7-22,71.5-22s35.7,17.6,71.5,17.6c35.7,0,35.7,22,71.5,22
			c35.7,0,35.7,2.2,71.5,2.2l0,0c-35.7,0-35.7-2.2-71.5-2.2c-35.7,0-35.7-22-71.5-22c-35.7,0-35.7-17.6-71.5-17.6s-35.7,22-71.5,22
			c-35.7,0-35.7,5.1-71.5,5.1c-35.7,0-35.7-16.1-71.5-16.1c-17.9,0-17.9,33.7-35.7,33.7c-35.7,0-35.7-2.2-71.5-2.2
			c-35.7,0-35.7,12.5-71.5,12.5c-35.7,0-35.7-10.3-71.5-10.3c-35.7,0-35.7-5.9-71.5-5.9c-35.7,0-35.7,2.9-71.5,2.9
			c-35.7,0-35.7-5.1-71.5-5.1s-35.7-4.4-71.5-4.4c-35.7,0-35.7-6.6-71.5-6.6c-35.7,0-35.7-8.1-71.5-8.1s-35.7,3.7-71.5,3.7
			c-35.7,0-35.7-6.6-71.5-6.6s-35.7,8.8-71.5,8.8c-35.7,0-35.7,0-71.5,0c-35.7,0-35.7,9.5-71.5,9.5s-35.7-16.9-71.5-16.9
			c-35.7,0-35.7,12.5-71.5,12.5C35.7,225.1,35.7,222.2,0,222.2z"/>
		<path class="st0" d="M0,222.2c35.7,0,35.7,1.5,71.5,1.5c35.7,0,35.7-11,71.5-11c35.7,0,35.7,16.9,71.5,16.9s35.7-9.5,71.5-9.5
			c35.7,0,35.7,0,71.5,0c35.7,0,35.7-10.3,71.5-10.3s35.7,8.1,71.5,8.1c35.7,0,35.7-27.1,71.5-27.1s35.7-0.7,71.5-0.7
			c35.7,0,35.7,0.7,71.5,0.7c35.7,0,35.7,10.3,71.5,10.3s35.7-11,71.5-11c35.7,0,35.7-26.4,71.5-26.4c35.7,0,35.7,4.4,71.5,4.4
			c35.7,0,35.7-1.5,71.5-1.5c35.7,0,35.7-16.9,71.5-16.9c35.7,0,35.7,53.5,71.5,53.5c17.9,0,17.9-2.9,35.7-2.9
			c35.7,0,35.7,19.1,71.5,19.1c35.7,0,35.7-0.7,71.5-0.7c35.7,0,35.7-24.9,71.5-24.9s35.7,19.1,71.5,19.1
			c35.7,0,35.7,19.1,71.5,19.1c35.7,0,35.7,2.2,71.5,2.2l0,0c-35.7,0-35.7-2.2-71.5-2.2c-35.7,0-35.7-19.1-71.5-19.1
			c-35.7,0-35.7-19.1-71.5-19.1s-35.7,24.9-71.5,24.9c-35.7,0-35.7,0.7-71.5,0.7c-35.7,0-35.7-20.5-71.5-20.5
			c-17.9,0-17.9,4.4-35.7,4.4c-35.7,0-35.7-53.5-71.5-53.5c-35.7,0-35.7,16.9-71.5,16.9c-35.7,0-35.7,1.5-71.5,1.5
			c-35.7,0-35.7-4.4-71.5-4.4c-35.7,0-35.7,26.4-71.5,26.4c-35.7,0-35.7,11-71.5,11s-35.7-10.3-71.5-10.3c-35.7,0-35.7-0.7-71.5-0.7
			c-35.7,0-35.7,0.7-71.5,0.7s-35.7,27.1-71.5,27.1c-35.7,0-35.7-8.1-71.5-8.1S393.2,220,357.4,220c-35.7,0-35.7,0-71.5,0
			c-35.7,0-35.7,9.5-71.5,9.5s-35.7-16.9-71.5-16.9c-35.7,0-35.7,11-71.5,11C35.7,223.7,35.7,222.2,0,222.2z"/>
		<path class="st0" d="M0,223.7c35.7,0,35.7,2.9,71.5,2.9c35.7,0,35.7-12.5,71.5-12.5c35.7,0,35.7,16.9,71.5,16.9s35.7-11,71.5-11
			c35.7,0,35.7,0,71.5,0c35.7,0,35.7-4.4,71.5-4.4s35.7,3.7,71.5,3.7c35.7,0,35.7-0.7,71.5-0.7s35.7,15.4,71.5,15.4
			c35.7,0,35.7,9.5,71.5,9.5c35.7,0,35.7,1.5,71.5,1.5s35.7,0.7,71.5,0.7c35.7,0,35.7,4.4,71.5,4.4c35.7,0,35.7,0,71.5,0
			c35.7,0,35.7,7.3,71.5,7.3c35.7,0,35.7-6.6,71.5-6.6c35.7,0,35.7-8.1,71.5-8.1c17.9,0,17.9-35.2,35.7-35.2
			c35.7,0,35.7,17.6,71.5,17.6c35.7,0,35.7-6.6,71.5-6.6c35.7,0,35.7-22,71.5-22s35.7,17.6,71.5,17.6c35.7,0,35.7,22,71.5,22
			c35.7,0,35.7,5.1,71.5,5.1l0,0c-35.7,0-35.7-5.1-71.5-5.1c-35.7,0-35.7-22-71.5-22c-35.7,0-35.7-17.6-71.5-17.6s-35.7,22-71.5,22
			c-35.7,0-35.7,6.6-71.5,6.6c-35.7,0-35.7-17.6-71.5-17.6c-17.9,0-17.9,35.2-35.7,35.2c-35.7,0-35.7-3.7-71.5-3.7
			c-35.7,0-35.7,12.5-71.5,12.5c-35.7,0-35.7-8.8-71.5-8.8c-35.7,0-35.7-7.3-71.5-7.3c-35.7,0-35.7,2.9-71.5,2.9
			c-35.7,0-35.7-3.7-71.5-3.7s-35.7,8.8-71.5,8.8c-35.7,0-35.7-9.5-71.5-9.5c-35.7,0-35.7-15.4-71.5-15.4s-35.7,0.7-71.5,0.7
			c-35.7,0-35.7-3.7-71.5-3.7s-35.7,4.4-71.5,4.4c-35.7,0-35.7,0-71.5,0c-35.7,0-35.7,11-71.5,11s-35.7-16.9-71.5-16.9
			c-35.7,0-35.7,12.5-71.5,12.5C35.7,226.6,35.7,223.7,0,223.7z"/>
		<path class="st0" d="M0,222.2c35.7,0,35.7,1.5,71.5,1.5c35.7,0,35.7-11,71.5-11c35.7,0,35.7,16.9,71.5,16.9s35.7-9.5,71.5-9.5
			c35.7,0,35.7,0,71.5,0c35.7,0,35.7-10.3,71.5-10.3s35.7,8.1,71.5,8.1c35.7,0,35.7-27.1,71.5-27.1s35.7-0.7,71.5-0.7
			c35.7,0,35.7,0.7,71.5,0.7c35.7,0,35.7,10.3,71.5,10.3s35.7-11,71.5-11c35.7,0,35.7-26.4,71.5-26.4c35.7,0,35.7,4.4,71.5,4.4
			c35.7,0,35.7,0,71.5,0c35.7,0,35.7-13.9,71.5-13.9c35.7,0,35.7,82.9,71.5,82.9c17.9,0,17.9-29.3,35.7-29.3
			c35.7,0,35.7,16.1,71.5,16.1c35.7,0,35.7-5.1,71.5-5.1c35.7,0,35.7-22,71.5-22s35.7,17.6,71.5,17.6c35.7,0,35.7,22,71.5,22
			c35.7,0,35.7,0.7,71.5,0.7l0,0c-35.7,0-35.7-0.7-71.5-0.7c-35.7,0-35.7-22-71.5-22c-35.7,0-35.7-17.6-71.5-17.6s-35.7,22-71.5,22
			c-35.7,0-35.7,5.1-71.5,5.1c-35.7,0-35.7-16.1-71.5-16.1c-17.9,0-17.9,29.3-35.7,29.3c-35.7,0-35.7-87.3-71.5-87.3
			c-35.7,0-35.7,16.9-71.5,16.9c-35.7,0-35.7,1.5-71.5,1.5c-35.7,0-35.7-4.4-71.5-4.4c-35.7,0-35.7,26.4-71.5,26.4
			c-35.7,0-35.7,11-71.5,11s-35.7-10.3-71.5-10.3c-35.7,0-35.7-0.7-71.5-0.7c-35.7,0-35.7,0.7-71.5,0.7s-35.7,27.1-71.5,27.1
			c-35.7,0-35.7-8.1-71.5-8.1S393.2,220,357.4,220c-35.7,0-35.7,0-71.5,0c-35.7,0-35.7,9.5-71.5,9.5s-35.7-16.9-71.5-16.9
			c-35.7,0-35.7,11-71.5,11C35.7,223.7,35.7,222.2,0,222.2z"/>
		<path class="st0" d="M0,222.2c35.7,0,35.7,2.9,71.5,2.9c35.7,0,35.7-11,71.5-11c35.7,0,35.7,16.9,71.5,16.9s35.7-11,71.5-11
			c35.7,0,35.7,0,71.5,0c35.7,0,35.7-7.3,71.5-7.3s35.7,6.6,71.5,6.6c35.7,0,35.7-0.7,71.5-0.7s35.7,15.4,71.5,15.4
			c35.7,0,35.7,8.1,71.5,8.1c35.7,0,35.7-8.8,71.5-8.8s35.7,5.1,71.5,5.1c35.7,0,35.7-2.9,71.5-2.9c35.7,0,35.7,7.3,71.5,7.3
			c35.7,0,35.7,8.8,71.5,8.8c35.7,0,35.7-12.5,71.5-12.5c35.7,0,35.7,2.2,71.5,2.2c17.9,0,17.9-33.7,35.7-33.7
			c35.7,0,35.7,16.1,71.5,16.1c35.7,0,35.7-5.1,71.5-5.1c35.7,0,35.7-22,71.5-22s35.7,17.6,71.5,17.6c35.7,0,35.7,22,71.5,22
			c35.7,0,35.7,3.7,71.5,3.7l0,0c-35.7,0-35.7-3.7-71.5-3.7c-35.7,0-35.7-22-71.5-22c-35.7,0-35.7-17.6-71.5-17.6s-35.7,22-71.5,22
			c-35.7,0-35.7,5.1-71.5,5.1c-35.7,0-35.7-16.1-71.5-16.1c-17.9,0-17.9,33.7-35.7,33.7c-35.7,0-35.7-2.2-71.5-2.2
			c-35.7,0-35.7,12.5-71.5,12.5c-35.7,0-35.7-8.8-71.5-8.8c-35.7,0-35.7-7.3-71.5-7.3c-35.7,0-35.7,2.9-71.5,2.9
			c-35.7,0-35.7-5.1-71.5-5.1s-35.7,8.8-71.5,8.8c-35.7,0-35.7-8.1-71.5-8.1c-35.7,0-35.7-15.4-71.5-15.4s-35.7,0.7-71.5,0.7
			c-35.7,0-35.7-6.6-71.5-6.6s-35.7,7.3-71.5,7.3c-35.7,0-35.7,0-71.5,0c-35.7,0-35.7,11-71.5,11s-35.7-16.9-71.5-16.9
			c-35.7,0-35.7,11-71.5,11C35.7,225.1,35.7,222.2,0,222.2z"/>
	</g>
	<g transform="translate(0, 460)" class="st11">
		<g transform="translate(285.9574468085106, 0)" class="st12">
			<text class="st13 st14 st15">1940</text>
		</g>
		<g transform="translate(643.4042553191489, 0)" class="st12">
			<text class="st13 st14 st15">1960</text>
		</g>
		<g transform="translate(1000.8510638297872, 0)" class="st12">
			<text class="st13 st14 st15">1980</text>
		</g>
		<g transform="translate(1358.2978723404253, 0)" class="st12">
			<text class="st13 st14 st15">2000</text>
		</g>
	</g>
</g>
</svg>
